<svg width="262" height="117" viewBox="0 0 262 117" fill="none" xmlns="http://www.w3.org/2000/svg">
<path fill-rule="evenodd" clip-rule="evenodd" d="M16.3583 59.9594L0.0323606 59.9756L0.0161803 61.3051L34.9171 61.597L35.176 59.7162L104.411 59.6027C107.081 59.6027 105.204 59.6189 105.835 60.0567C106.661 60.4296 106.499 59.9594 106.612 61.7267C106.612 61.7429 106.499 63.0076 106.499 63.0563C106.159 64.5804 106.272 63.6724 106.062 64.0129C105.981 64.1102 105.803 64.094 105.722 64.2399C105.657 64.3858 105.463 64.402 105.366 64.4344L17.4747 64.5479L17.7336 68.4879C13.009 69.25 5.16151 68.6339 0.0485409 68.8122L0.0647212 69.9148C3.60821 70.9201 28.2023 70.2228 34.0919 70.2066C35.451 69.9796 35.0465 69.2824 35.629 68.1637L105.787 68.115L106.013 72.2334L17.1511 72.2658L17.0055 76.1085L0.0161803 76.2869L0.0323606 77.6326L34.5935 77.7299C34.642 77.5191 34.9494 76.368 35.2083 76.0112C39.3343 75.5086 88.0694 75.8815 96.7582 75.8653C99.0396 75.8653 105.463 75.2005 106.321 76.4328C106.418 76.5625 107.114 79.5135 106.029 80.3404C105.253 80.9241 101.968 80.6322 100.819 80.6322C73.5071 80.5674 44.9327 79.9837 17.7498 80.6647L17.5394 84.6857C13.1222 85.1559 3.30078 84.1507 0.388327 85.1235C0.938457 86.4206 -0.339786 85.6586 1.42387 86.0964L35.3701 86.0315L35.3216 84.4912L105.819 84.3452L105.916 88.4798L17.0379 88.496L17.0055 92.4036L0 92.5333L0.0970818 93.9764H34.8524C34.642 93.8304 34.6258 93.5386 34.6744 93.4413C35.273 92.1928 34.6097 93.0522 35.6128 92.0955C40.2404 91.5443 47.9584 91.9496 52.9419 91.9496C61.7117 91.9496 103.602 91.3173 106.207 92.4198C107.939 98.6622 105.868 96.976 88.6195 97.0084H41.729C34.0757 97.0084 25.2736 96.6841 17.7821 97.0894V116.011L122.776 116.157V0C118.165 0.8107 25.8885 0.145926 17.4424 0.259424L17.2806 58.6785C17.1188 61.0782 17.4424 59.1973 16.3583 59.9594Z" fill="#BD2026"/>
<path d="M141.626 32.428H142.823V38.0704C142.823 39.0595 142.726 39.8378 142.516 40.4053C142.305 40.989 141.933 41.4592 141.399 41.8159C140.865 42.1726 140.153 42.3509 139.296 42.3509C138.454 42.3509 137.759 42.1888 137.225 41.8807C136.691 41.5727 136.303 41.1025 136.076 40.5025C135.849 39.9026 135.736 39.0919 135.736 38.0542V32.4117H136.934V38.0542C136.934 38.8973 136.998 39.5297 137.144 39.935C137.29 40.3404 137.548 40.6485 137.888 40.8592C138.244 41.07 138.681 41.1835 139.199 41.1835C140.073 41.1835 140.704 40.9727 141.076 40.535C141.448 40.0972 141.642 39.2703 141.642 38.0542V32.428H141.626ZM137.516 31.8443V30.4661H138.681V31.828H137.516V31.8443ZM139.814 31.8443V30.4661H140.979V31.828H139.814V31.8443Z" fill="black"/>
<path d="M144.085 42.2049V41.2321L148.244 36.0598C147.774 36.0922 147.354 36.0922 146.998 36.0922H144.328V35.1194H149.667V35.9139L146.124 40.4051L145.444 41.2321C145.946 41.1996 146.399 41.1672 146.836 41.1672H149.862V42.2049H144.085Z" fill="black"/>
<path d="M155.444 39.935L156.593 40.0809C156.415 40.8106 156.075 41.3618 155.59 41.7672C155.104 42.1725 154.473 42.3671 153.713 42.3671C152.758 42.3671 151.998 42.0428 151.431 41.4105C150.865 40.7781 150.59 39.8864 150.59 38.7352C150.59 37.5515 150.881 36.6273 151.447 35.9626C152.014 35.2978 152.742 34.9735 153.648 34.9735C154.522 34.9735 155.234 35.2978 155.8 35.9464C156.35 36.5949 156.625 37.5029 156.625 38.6703C156.625 38.7352 156.625 38.8487 156.625 38.9946H151.755C151.803 39.7729 151.998 40.3728 152.37 40.7781C152.742 41.1835 153.195 41.3943 153.729 41.3943C154.133 41.3943 154.489 41.2808 154.764 41.0538C155.039 40.8268 155.282 40.4376 155.444 39.935ZM151.803 37.9893H155.46C155.412 37.3894 155.266 36.9516 155.039 36.6436C154.684 36.1733 154.23 35.9464 153.664 35.9464C153.163 35.9464 152.726 36.1247 152.386 36.4976C152.046 36.8706 151.852 37.3732 151.803 37.9893Z" fill="black"/>
<path d="M157.936 44.9288L157.806 43.81C158.049 43.8749 158.259 43.9235 158.437 43.9235C158.68 43.9235 158.874 43.8749 159.036 43.7938C159.182 43.7127 159.311 43.583 159.392 43.4209C159.457 43.3074 159.57 42.9993 159.732 42.5291C159.748 42.4642 159.78 42.367 159.829 42.2373L157.353 35.1517H158.551L159.91 39.2539C160.088 39.7727 160.25 40.324 160.379 40.8915C160.508 40.3402 160.654 39.8052 160.832 39.2701L162.224 35.1517H163.34L160.848 42.3507C160.573 43.129 160.379 43.6641 160.233 43.9559C160.039 44.3451 159.813 44.6369 159.554 44.8315C159.295 45.0098 158.987 45.1071 158.648 45.1071C158.437 45.0747 158.195 45.0261 157.936 44.9288Z" fill="black"/>
<path d="M164.295 33.822V32.4438H165.411V33.822H164.295ZM164.295 42.2047V35.1192H165.411V42.2047H164.295Z" fill="black"/>
<path d="M167.077 42.2049V35.1194H168.081V36.1895C168.339 35.6869 168.566 35.3626 168.792 35.2005C169.019 35.0383 169.246 34.9573 169.504 34.9573C169.877 34.9573 170.265 35.087 170.637 35.3464L170.249 36.4652C169.974 36.2868 169.715 36.2058 169.44 36.2058C169.197 36.2058 168.987 36.2868 168.792 36.449C168.598 36.6111 168.469 36.8219 168.388 37.0975C168.259 37.5191 168.21 37.9893 168.21 38.4919V42.2049H167.077Z" fill="black"/>
<path d="M174.974 42.2049V32.4279H176.171V36.4489H180.863V32.4279H182.061V42.2049H180.863V37.6001H176.171V42.2049H174.974Z" fill="black"/>
<path d="M188.177 41.3294C187.772 41.7023 187.368 41.9779 186.996 42.1239C186.607 42.286 186.203 42.3509 185.766 42.3509C185.054 42.3509 184.488 42.1563 184.116 41.7834C183.727 41.4105 183.533 40.924 183.533 40.3241C183.533 39.9836 183.598 39.6593 183.76 39.3675C183.905 39.0756 184.099 38.8486 184.326 38.6703C184.569 38.4919 184.828 38.3622 185.119 38.2811C185.329 38.2163 185.669 38.1514 186.106 38.1028C186.996 37.9893 187.659 37.8434 188.08 37.6974C188.08 37.5353 188.08 37.4218 188.08 37.3894C188.08 36.903 187.983 36.5625 187.772 36.3517C187.481 36.076 187.06 35.9463 186.51 35.9463C185.992 35.9463 185.604 36.0436 185.361 36.2382C185.119 36.4328 184.925 36.7895 184.811 37.2921L183.727 37.13C183.824 36.6273 183.986 36.222 184.213 35.9139C184.439 35.6058 184.763 35.3626 185.2 35.2005C185.62 35.0383 186.122 34.9573 186.688 34.9573C187.238 34.9573 187.708 35.0221 188.047 35.1681C188.403 35.314 188.662 35.4923 188.824 35.7031C188.986 35.9139 189.099 36.1895 189.164 36.5138C189.196 36.7246 189.212 37.0813 189.212 37.6164V39.2216C189.212 40.3403 189.229 41.0375 189.277 41.3456C189.326 41.6374 189.423 41.9293 189.552 42.1887H188.387C188.274 41.9617 188.209 41.6699 188.177 41.3294ZM188.08 38.6541C187.675 38.8324 187.077 38.9783 186.268 39.1081C185.815 39.1729 185.491 39.254 185.297 39.3513C185.103 39.4323 184.957 39.5621 184.86 39.7404C184.763 39.9188 184.714 40.0971 184.714 40.3079C184.714 40.6322 184.828 40.8916 185.054 41.1024C185.281 41.3132 185.604 41.4267 186.041 41.4267C186.462 41.4267 186.85 41.3294 187.174 41.1186C187.513 40.9078 187.756 40.6322 187.902 40.2917C188.015 40.016 188.08 39.6269 188.08 39.0918V38.6541Z" fill="black"/>
<path d="M195.183 39.6105L196.267 39.7565C196.154 40.5672 195.847 41.1995 195.345 41.6697C194.843 42.1399 194.245 42.3669 193.533 42.3669C192.643 42.3669 191.915 42.0426 191.381 41.4103C190.847 40.778 190.572 39.87 190.572 38.6864C190.572 37.9243 190.685 37.2595 190.928 36.6758C191.17 36.0921 191.51 35.6705 191.996 35.3787C192.481 35.0868 192.999 34.9409 193.549 34.9409C194.261 34.9409 194.843 35.1355 195.296 35.5246C195.749 35.9138 196.041 36.465 196.17 37.1784L195.086 37.3568C194.989 36.8866 194.795 36.5299 194.536 36.2867C194.277 36.0435 193.953 35.93 193.597 35.93C193.047 35.93 192.578 36.1408 192.238 36.5785C191.899 37.0163 191.721 37.6973 191.721 38.6377C191.721 39.5943 191.882 40.2753 192.222 40.7131C192.562 41.1509 192.999 41.3617 193.533 41.3617C193.97 41.3617 194.326 41.2157 194.617 40.9239C194.924 40.6645 195.118 40.2105 195.183 39.6105Z" fill="black"/>
<path d="M197.609 42.2049V35.1194H198.71V42.2049H197.609Z" fill="black"/>
<path d="M201.752 42.2045H200.717V32.4275H201.833V35.9135C202.303 35.2812 202.901 34.9569 203.629 34.9569C204.034 34.9569 204.406 35.0379 204.778 35.2163C205.134 35.3947 205.425 35.6379 205.668 35.9621C205.895 36.2864 206.089 36.6593 206.218 37.1133C206.348 37.5673 206.412 38.0375 206.412 38.5564C206.412 39.7724 206.137 40.7128 205.587 41.3776C205.037 42.0424 204.374 42.3667 203.597 42.3667C202.82 42.3667 202.222 42.01 201.785 41.3128V42.2045H201.752ZM201.736 38.6212C201.736 39.4644 201.85 40.0805 202.06 40.4534C202.416 41.0696 202.885 41.3776 203.484 41.3776C203.969 41.3776 204.39 41.1506 204.746 40.6966C205.102 40.2426 205.28 39.5617 205.28 38.6537C205.28 37.7295 205.102 37.0485 204.778 36.6107C204.438 36.1729 204.034 35.9459 203.548 35.9459C203.063 35.9459 202.642 36.1729 202.286 36.6269C201.914 37.0971 201.736 37.7457 201.736 38.6212Z" fill="black"/>
<path d="M213.467 38.6054C213.467 39.6918 213.208 40.5836 212.707 41.2645C212.157 41.9942 211.396 42.3671 210.409 42.3671C209.455 42.3671 208.694 42.0104 208.16 41.2808C207.675 40.616 207.432 39.7404 207.432 38.6865C207.432 38.6217 207.432 38.5082 207.432 38.3622H212.302C212.27 37.665 212.092 37.1138 211.784 36.676C211.429 36.1896 210.943 35.9464 210.328 35.9464C209.503 35.9464 208.921 36.4328 208.597 37.4056L207.448 37.2597C207.837 35.7356 208.791 34.9735 210.328 34.9735C211.331 34.9735 212.108 35.314 212.658 35.995C213.208 36.6273 213.467 37.5029 213.467 38.6054ZM212.254 39.3513H208.597C208.646 39.9512 208.791 40.389 209.018 40.6971C209.374 41.1673 209.827 41.3943 210.393 41.3943C210.927 41.3943 211.364 41.1997 211.704 40.8106C212.043 40.4214 212.221 39.935 212.254 39.3513Z" fill="black"/>
<path d="M214.713 44.9288L214.583 43.81C214.826 43.8749 215.036 43.9235 215.214 43.9235C215.457 43.9235 215.651 43.8749 215.813 43.7938C215.959 43.7127 216.088 43.583 216.169 43.4209C216.234 43.3074 216.347 42.9993 216.509 42.5291C216.525 42.4642 216.557 42.367 216.606 42.2373L214.13 35.1517H215.328L216.687 39.2539C216.865 39.7727 217.027 40.324 217.156 40.8915C217.286 40.3402 217.431 39.8052 217.609 39.2701L219.001 35.1517H220.117L217.625 42.3507C217.35 43.129 217.156 43.6641 217.01 43.9559C216.816 44.3451 216.59 44.6369 216.331 44.8315C216.072 45.0098 215.765 45.1071 215.425 45.1071C215.214 45.0747 214.972 45.0261 214.713 44.9288Z" fill="black"/>
<path d="M221.039 42.2049V32.4279H222.14V42.2049H221.039Z" fill="black"/>
<path d="M223.871 33.822V32.4438H224.987V33.822H223.871ZM223.871 42.2047V35.1192H224.987V42.2047H223.871Z" fill="black"/>
<path d="M234.436 41.3294C234.031 41.7023 233.627 41.9779 233.255 42.1239C232.866 42.286 232.462 42.3509 232.025 42.3509C231.313 42.3509 230.747 42.1563 230.375 41.7834C229.986 41.4105 229.792 40.924 229.792 40.3241C229.792 39.9836 229.857 39.6593 230.019 39.3675C230.164 39.0756 230.358 38.8486 230.585 38.6703C230.828 38.4919 231.087 38.3622 231.378 38.2811C231.588 38.2163 231.928 38.1514 232.365 38.1028C233.255 37.9893 233.918 37.8434 234.339 37.6974C234.339 37.5353 234.339 37.4218 234.339 37.3894C234.339 36.903 234.242 36.5625 234.031 36.3517C233.74 36.076 233.319 35.9463 232.769 35.9463C232.252 35.9463 231.863 36.0436 231.62 36.2382C231.378 36.4328 231.184 36.7895 231.07 37.2921L229.986 37.13C230.083 36.6273 230.245 36.222 230.472 35.9139C230.698 35.6058 231.022 35.3626 231.459 35.2005C231.879 35.0383 232.381 34.9573 232.947 34.9573C233.497 34.9573 233.967 35.0221 234.306 35.1681C234.662 35.314 234.921 35.4923 235.083 35.7031C235.245 35.9139 235.358 36.1895 235.423 36.5138C235.455 36.7246 235.471 37.0813 235.471 37.6164V39.2216C235.471 40.3403 235.488 41.0375 235.536 41.3456C235.585 41.6374 235.682 41.9293 235.811 42.1887H234.646C234.549 41.9617 234.468 41.6699 234.436 41.3294ZM234.355 38.6541C233.95 38.8324 233.352 38.9783 232.543 39.1081C232.09 39.1729 231.766 39.254 231.572 39.3513C231.378 39.4323 231.232 39.5621 231.135 39.7404C231.038 39.9188 230.989 40.0971 230.989 40.3079C230.989 40.6322 231.103 40.8916 231.329 41.1024C231.556 41.3132 231.879 41.4267 232.316 41.4267C232.737 41.4267 233.125 41.3294 233.449 41.1186C233.789 40.9078 234.031 40.6322 234.177 40.2917C234.29 40.016 234.355 39.6269 234.355 39.0918V38.6541Z" fill="black"/>
<path d="M241.426 42.2045V41.3128C241.006 42.01 240.407 42.3667 239.598 42.3667C239.08 42.3667 238.595 42.2045 238.158 41.8965C237.721 41.5884 237.381 41.1506 237.139 40.5993C236.896 40.0481 236.783 39.3995 236.783 38.6699C236.783 37.9565 236.896 37.3241 237.106 36.7404C237.317 36.1729 237.656 35.7189 238.093 35.4109C238.53 35.1028 239.015 34.9569 239.549 34.9569C239.938 34.9569 240.294 35.0542 240.601 35.2325C240.909 35.4109 241.151 35.6541 241.345 35.9297V32.4275H242.446V42.2045H241.426ZM237.931 38.6699C237.931 39.5779 238.109 40.2589 238.465 40.6966C238.821 41.1506 239.242 41.3776 239.711 41.3776C240.197 41.3776 240.601 41.1668 240.941 40.7291C241.281 40.3075 241.443 39.6427 241.443 38.7672C241.443 37.7943 241.265 37.0809 240.925 36.6269C240.585 36.1729 240.148 35.9459 239.647 35.9459C239.161 35.9459 238.74 36.1567 238.417 36.5945C238.093 37.0485 237.931 37.7457 237.931 38.6699Z" fill="black"/>
<path d="M244.582 42.2049V35.1194H245.682V42.2049H244.582Z" fill="black"/>
<path d="M247.704 42.2049V35.1194H248.707V36.1247C249.192 35.3464 249.888 34.9573 250.794 34.9573C251.183 34.9573 251.555 35.0383 251.878 35.1843C252.202 35.3302 252.461 35.541 252.623 35.7842C252.784 36.0274 252.898 36.3355 252.962 36.676C252.995 36.903 253.027 37.2921 253.027 37.8434V42.1887H251.911V37.8758C251.911 37.3894 251.862 37.0165 251.781 36.7732C251.7 36.53 251.539 36.3355 251.328 36.1895C251.102 36.0436 250.859 35.9788 250.552 35.9788C250.082 35.9788 249.678 36.1409 249.322 36.4652C248.966 36.7895 248.804 37.4056 248.804 38.3136V42.1725H247.704V42.2049Z" fill="black"/>
<path d="M258.982 41.3294C258.577 41.7023 258.173 41.9779 257.801 42.1239C257.412 42.286 257.008 42.3509 256.571 42.3509C255.859 42.3509 255.293 42.1563 254.921 41.7834C254.532 41.4105 254.338 40.924 254.338 40.3241C254.338 39.9836 254.403 39.6593 254.565 39.3675C254.71 39.0756 254.904 38.8486 255.131 38.6703C255.374 38.4919 255.632 38.3622 255.924 38.2811C256.134 38.2163 256.474 38.1514 256.911 38.1028C257.801 37.9893 258.464 37.8434 258.885 37.6974C258.885 37.5353 258.885 37.4218 258.885 37.3894C258.885 36.903 258.788 36.5625 258.577 36.3517C258.286 36.076 257.865 35.9463 257.315 35.9463C256.797 35.9463 256.409 36.0436 256.166 36.2382C255.924 36.4328 255.729 36.7895 255.616 37.2921L254.532 37.13C254.629 36.6273 254.791 36.222 255.018 35.9139C255.244 35.6058 255.568 35.3626 256.005 35.2005C256.425 35.0383 256.927 34.9573 257.493 34.9573C258.043 34.9573 258.512 35.0221 258.852 35.1681C259.208 35.314 259.467 35.4923 259.629 35.7031C259.791 35.9139 259.904 36.1895 259.969 36.5138C260.001 36.7246 260.017 37.0813 260.017 37.6164V39.2216C260.017 40.3403 260.033 41.0375 260.082 41.3456C260.131 41.6374 260.228 41.9293 260.357 42.1887H259.192C259.079 41.9617 259.014 41.6699 258.982 41.3294ZM258.885 38.6541C258.48 38.8324 257.881 38.9783 257.072 39.1081C256.619 39.1729 256.296 39.254 256.102 39.3513C255.907 39.4323 255.762 39.5621 255.665 39.7404C255.568 39.9188 255.519 40.0971 255.519 40.3079C255.519 40.6322 255.632 40.8916 255.859 41.1024C256.085 41.3132 256.409 41.4267 256.846 41.4267C257.267 41.4267 257.655 41.3294 257.979 41.1186C258.318 40.9078 258.561 40.6322 258.707 40.2917C258.82 40.016 258.885 39.6269 258.885 39.0918V38.6541Z" fill="black"/>
<path d="M141.626 32.428H142.823V38.0704C142.823 39.0595 142.726 39.8378 142.516 40.4053C142.305 40.989 141.933 41.4592 141.399 41.8159C140.865 42.1726 140.153 42.3509 139.296 42.3509C138.454 42.3509 137.759 42.1888 137.225 41.8807C136.691 41.5727 136.303 41.1025 136.076 40.5025C135.849 39.9026 135.736 39.0919 135.736 38.0542V32.4117H136.934V38.0542C136.934 38.8973 136.998 39.5297 137.144 39.935C137.29 40.3404 137.548 40.6485 137.888 40.8592C138.244 41.07 138.681 41.1835 139.199 41.1835C140.073 41.1835 140.704 40.9727 141.076 40.535C141.448 40.0972 141.642 39.2703 141.642 38.0542V32.428H141.626ZM137.516 31.8443V30.4661H138.681V31.828H137.516V31.8443ZM139.814 31.8443V30.4661H140.979V31.828H139.814V31.8443Z" stroke="black" stroke-width="0.216" stroke-miterlimit="22.9256"/>
<path d="M144.085 42.2049V41.2321L148.244 36.0598C147.774 36.0922 147.354 36.0922 146.998 36.0922H144.328V35.1194H149.667V35.9139L146.124 40.4051L145.444 41.2321C145.946 41.1996 146.399 41.1672 146.836 41.1672H149.862V42.2049H144.085V42.2049Z" stroke="black" stroke-width="0.216" stroke-miterlimit="22.9256"/>
<path d="M155.444 39.935L156.593 40.0809C156.415 40.8106 156.075 41.3618 155.59 41.7672C155.104 42.1725 154.473 42.3671 153.713 42.3671C152.758 42.3671 151.998 42.0428 151.431 41.4105C150.865 40.7781 150.59 39.8864 150.59 38.7352C150.59 37.5515 150.881 36.6273 151.447 35.9626C152.014 35.2978 152.742 34.9735 153.648 34.9735C154.522 34.9735 155.234 35.2978 155.8 35.9464C156.35 36.5949 156.625 37.5029 156.625 38.6703C156.625 38.7352 156.625 38.8487 156.625 38.9946H151.755C151.803 39.7729 151.998 40.3728 152.37 40.7781C152.742 41.1835 153.195 41.3943 153.729 41.3943C154.133 41.3943 154.489 41.2808 154.764 41.0538C155.039 40.8268 155.282 40.4376 155.444 39.935ZM151.803 37.9893H155.46C155.412 37.3894 155.266 36.9516 155.039 36.6436C154.684 36.1733 154.23 35.9464 153.664 35.9464C153.163 35.9464 152.726 36.1247 152.386 36.4976C152.046 36.8706 151.852 37.3732 151.803 37.9893Z" stroke="black" stroke-width="0.216" stroke-miterlimit="22.9256"/>
<path d="M157.936 44.9288L157.806 43.81C158.049 43.8749 158.259 43.9235 158.437 43.9235C158.68 43.9235 158.874 43.8749 159.036 43.7938C159.182 43.7127 159.311 43.583 159.392 43.4209C159.457 43.3074 159.57 42.9993 159.732 42.5291C159.748 42.4642 159.78 42.367 159.829 42.2373L157.353 35.1517H158.551L159.91 39.2539C160.088 39.7727 160.25 40.324 160.379 40.8915C160.508 40.3402 160.654 39.8052 160.832 39.2701L162.224 35.1517H163.34L160.848 42.3507C160.573 43.129 160.379 43.6641 160.233 43.9559C160.039 44.3451 159.813 44.6369 159.554 44.8315C159.295 45.0098 158.987 45.1071 158.648 45.1071C158.437 45.0747 158.195 45.0261 157.936 44.9288Z" stroke="black" stroke-width="0.216" stroke-miterlimit="22.9256"/>
<path d="M164.295 33.822V32.4438H165.411V33.822H164.295ZM164.295 42.2047V35.1192H165.411V42.2047H164.295Z" stroke="black" stroke-width="0.216" stroke-miterlimit="22.9256"/>
<path d="M167.077 42.2049V35.1194H168.081V36.1895C168.339 35.6869 168.566 35.3626 168.792 35.2005C169.019 35.0383 169.246 34.9573 169.504 34.9573C169.877 34.9573 170.265 35.087 170.637 35.3464L170.249 36.4652C169.974 36.2868 169.715 36.2058 169.44 36.2058C169.197 36.2058 168.987 36.2868 168.792 36.449C168.598 36.6111 168.469 36.8219 168.388 37.0975C168.259 37.5191 168.21 37.9893 168.21 38.4919V42.2049H167.077V42.2049Z" stroke="black" stroke-width="0.216" stroke-miterlimit="22.9256"/>
<path d="M174.974 42.2049V32.4279H176.171V36.4489H180.863V32.4279H182.061V42.2049H180.863V37.6001H176.171V42.2049H174.974Z" stroke="black" stroke-width="0.216" stroke-miterlimit="22.9256"/>
<path d="M188.177 41.3294C187.772 41.7023 187.368 41.9779 186.996 42.1239C186.607 42.286 186.203 42.3509 185.766 42.3509C185.054 42.3509 184.488 42.1563 184.116 41.7834C183.727 41.4105 183.533 40.924 183.533 40.3241C183.533 39.9836 183.598 39.6593 183.76 39.3675C183.905 39.0756 184.099 38.8486 184.326 38.6703C184.569 38.4919 184.828 38.3622 185.119 38.2811C185.329 38.2163 185.669 38.1514 186.106 38.1028C186.996 37.9893 187.659 37.8434 188.08 37.6974C188.08 37.5353 188.08 37.4218 188.08 37.3894C188.08 36.903 187.983 36.5625 187.772 36.3517C187.481 36.076 187.06 35.9463 186.51 35.9463C185.992 35.9463 185.604 36.0436 185.361 36.2382C185.119 36.4328 184.925 36.7895 184.811 37.2921L183.727 37.13C183.824 36.6273 183.986 36.222 184.213 35.9139C184.439 35.6058 184.763 35.3626 185.2 35.2005C185.62 35.0383 186.122 34.9573 186.688 34.9573C187.238 34.9573 187.708 35.0221 188.047 35.1681C188.403 35.314 188.662 35.4923 188.824 35.7031C188.986 35.9139 189.099 36.1895 189.164 36.5138C189.196 36.7246 189.212 37.0813 189.212 37.6164V39.2216C189.212 40.3403 189.229 41.0375 189.277 41.3456C189.326 41.6374 189.423 41.9293 189.552 42.1887H188.387C188.274 41.9617 188.209 41.6699 188.177 41.3294ZM188.08 38.6541C187.675 38.8324 187.077 38.9783 186.268 39.1081C185.815 39.1729 185.491 39.254 185.297 39.3513C185.103 39.4323 184.957 39.5621 184.86 39.7404C184.763 39.9188 184.714 40.0971 184.714 40.3079C184.714 40.6322 184.828 40.8916 185.054 41.1024C185.281 41.3132 185.604 41.4267 186.041 41.4267C186.462 41.4267 186.85 41.3294 187.174 41.1186C187.513 40.9078 187.756 40.6322 187.902 40.2917C188.015 40.016 188.08 39.6269 188.08 39.0918V38.6541Z" stroke="black" stroke-width="0.216" stroke-miterlimit="22.9256"/>
<path d="M195.183 39.6105L196.267 39.7565C196.154 40.5672 195.847 41.1995 195.345 41.6697C194.843 42.1399 194.245 42.3669 193.533 42.3669C192.643 42.3669 191.915 42.0426 191.381 41.4103C190.847 40.778 190.572 39.87 190.572 38.6864C190.572 37.9243 190.685 37.2595 190.928 36.6758C191.17 36.0921 191.51 35.6705 191.996 35.3787C192.481 35.0868 192.999 34.9409 193.549 34.9409C194.261 34.9409 194.843 35.1355 195.296 35.5246C195.749 35.9138 196.041 36.465 196.17 37.1784L195.086 37.3568C194.989 36.8866 194.795 36.5299 194.536 36.2867C194.277 36.0435 193.953 35.93 193.597 35.93C193.047 35.93 192.578 36.1408 192.238 36.5785C191.899 37.0163 191.721 37.6973 191.721 38.6377C191.721 39.5943 191.882 40.2753 192.222 40.7131C192.562 41.1509 192.999 41.3617 193.533 41.3617C193.97 41.3617 194.326 41.2157 194.617 40.9239C194.924 40.6645 195.118 40.2105 195.183 39.6105Z" stroke="black" stroke-width="0.216" stroke-miterlimit="22.9256"/>
<path d="M197.609 42.2049V35.1194H198.71V42.2049H197.609Z" stroke="black" stroke-width="0.216" stroke-miterlimit="22.9256"/>
<path d="M201.752 42.2045H200.717V32.4275H201.833V35.9135C202.303 35.2812 202.901 34.9569 203.629 34.9569C204.034 34.9569 204.406 35.0379 204.778 35.2163C205.134 35.3947 205.425 35.6379 205.668 35.9621C205.895 36.2864 206.089 36.6593 206.218 37.1133C206.348 37.5673 206.412 38.0375 206.412 38.5564C206.412 39.7724 206.137 40.7128 205.587 41.3776C205.037 42.0424 204.374 42.3667 203.597 42.3667C202.82 42.3667 202.222 42.01 201.785 41.3128V42.2045H201.752ZM201.736 38.6212C201.736 39.4644 201.85 40.0805 202.06 40.4534C202.416 41.0696 202.885 41.3776 203.484 41.3776C203.969 41.3776 204.39 41.1506 204.746 40.6966C205.102 40.2426 205.28 39.5617 205.28 38.6537C205.28 37.7295 205.102 37.0485 204.778 36.6107C204.438 36.1729 204.034 35.9459 203.548 35.9459C203.063 35.9459 202.642 36.1729 202.286 36.6269C201.914 37.0971 201.736 37.7457 201.736 38.6212Z" stroke="black" stroke-width="0.216" stroke-miterlimit="22.9256"/>
<path d="M213.467 38.6054C213.467 39.6918 213.208 40.5836 212.707 41.2645C212.157 41.9942 211.396 42.3671 210.409 42.3671C209.455 42.3671 208.694 42.0104 208.16 41.2808C207.675 40.616 207.432 39.7404 207.432 38.6865C207.432 38.6217 207.432 38.5082 207.432 38.3622H212.302C212.27 37.665 212.092 37.1138 211.784 36.676C211.429 36.1896 210.943 35.9464 210.328 35.9464C209.503 35.9464 208.921 36.4328 208.597 37.4056L207.448 37.2597C207.837 35.7356 208.791 34.9735 210.328 34.9735C211.331 34.9735 212.108 35.314 212.658 35.995C213.208 36.6273 213.467 37.5029 213.467 38.6054ZM212.254 39.3513H208.597C208.646 39.9512 208.791 40.389 209.018 40.6971C209.374 41.1673 209.827 41.3943 210.393 41.3943C210.927 41.3943 211.364 41.1997 211.704 40.8106C212.043 40.4214 212.221 39.935 212.254 39.3513Z" stroke="black" stroke-width="0.216" stroke-miterlimit="22.9256"/>
<path d="M214.713 44.9288L214.583 43.81C214.826 43.8749 215.036 43.9235 215.214 43.9235C215.457 43.9235 215.651 43.8749 215.813 43.7938C215.959 43.7127 216.088 43.583 216.169 43.4209C216.234 43.3074 216.347 42.9993 216.509 42.5291C216.525 42.4642 216.557 42.367 216.606 42.2373L214.13 35.1517H215.328L216.687 39.2539C216.865 39.7727 217.027 40.324 217.156 40.8915C217.286 40.3402 217.431 39.8052 217.609 39.2701L219.001 35.1517H220.117L217.625 42.3507C217.35 43.129 217.156 43.6641 217.01 43.9559C216.816 44.3451 216.59 44.6369 216.331 44.8315C216.072 45.0098 215.765 45.1071 215.425 45.1071C215.214 45.0747 214.972 45.0261 214.713 44.9288Z" stroke="black" stroke-width="0.216" stroke-miterlimit="22.9256"/>
<path d="M221.039 42.2049V32.4279H222.14V42.2049H221.039Z" stroke="black" stroke-width="0.216" stroke-miterlimit="22.9256"/>
<path d="M223.871 33.822V32.4438H224.987V33.822H223.871ZM223.871 42.2047V35.1192H224.987V42.2047H223.871Z" stroke="black" stroke-width="0.216" stroke-miterlimit="22.9256"/>
<path d="M234.436 41.3294C234.031 41.7023 233.627 41.9779 233.255 42.1239C232.866 42.286 232.462 42.3509 232.025 42.3509C231.313 42.3509 230.747 42.1563 230.375 41.7834C229.986 41.4105 229.792 40.924 229.792 40.3241C229.792 39.9836 229.857 39.6593 230.019 39.3675C230.164 39.0756 230.358 38.8486 230.585 38.6703C230.828 38.4919 231.087 38.3622 231.378 38.2811C231.588 38.2163 231.928 38.1514 232.365 38.1028C233.255 37.9893 233.918 37.8434 234.339 37.6974C234.339 37.5353 234.339 37.4218 234.339 37.3894C234.339 36.903 234.242 36.5625 234.031 36.3517C233.74 36.076 233.319 35.9463 232.769 35.9463C232.252 35.9463 231.863 36.0436 231.62 36.2382C231.378 36.4328 231.184 36.7895 231.07 37.2921L229.986 37.13C230.083 36.6273 230.245 36.222 230.472 35.9139C230.698 35.6058 231.022 35.3626 231.459 35.2005C231.879 35.0383 232.381 34.9573 232.947 34.9573C233.497 34.9573 233.967 35.0221 234.306 35.1681C234.662 35.314 234.921 35.4923 235.083 35.7031C235.245 35.9139 235.358 36.1895 235.423 36.5138C235.455 36.7246 235.471 37.0813 235.471 37.6164V39.2216C235.471 40.3403 235.488 41.0375 235.536 41.3456C235.585 41.6374 235.682 41.9293 235.811 42.1887H234.646C234.549 41.9617 234.468 41.6699 234.436 41.3294ZM234.355 38.6541C233.95 38.8324 233.352 38.9783 232.543 39.1081C232.09 39.1729 231.766 39.254 231.572 39.3513C231.378 39.4323 231.232 39.5621 231.135 39.7404C231.038 39.9188 230.989 40.0971 230.989 40.3079C230.989 40.6322 231.103 40.8916 231.329 41.1024C231.556 41.3132 231.879 41.4267 232.316 41.4267C232.737 41.4267 233.125 41.3294 233.449 41.1186C233.789 40.9078 234.031 40.6322 234.177 40.2917C234.29 40.016 234.355 39.6269 234.355 39.0918V38.6541Z" stroke="black" stroke-width="0.216" stroke-miterlimit="22.9256"/>
<path d="M241.426 42.2045V41.3128C241.006 42.01 240.407 42.3667 239.598 42.3667C239.08 42.3667 238.595 42.2045 238.158 41.8965C237.721 41.5884 237.381 41.1506 237.139 40.5993C236.896 40.0481 236.783 39.3995 236.783 38.6699C236.783 37.9565 236.896 37.3241 237.106 36.7404C237.317 36.1729 237.656 35.7189 238.093 35.4109C238.53 35.1028 239.015 34.9569 239.549 34.9569C239.938 34.9569 240.294 35.0542 240.601 35.2325C240.909 35.4109 241.151 35.6541 241.345 35.9297V32.4275H242.446V42.2045H241.426V42.2045ZM237.931 38.6699C237.931 39.5779 238.109 40.2589 238.465 40.6966C238.821 41.1506 239.242 41.3776 239.711 41.3776C240.197 41.3776 240.601 41.1668 240.941 40.7291C241.281 40.3075 241.443 39.6427 241.443 38.7672C241.443 37.7943 241.265 37.0809 240.925 36.6269C240.585 36.1729 240.148 35.9459 239.647 35.9459C239.161 35.9459 238.74 36.1567 238.417 36.5945C238.093 37.0485 237.931 37.7457 237.931 38.6699Z" stroke="black" stroke-width="0.216" stroke-miterlimit="22.9256"/>
<path d="M244.582 42.2049V35.1194H245.682V42.2049H244.582Z" stroke="black" stroke-width="0.216" stroke-miterlimit="22.9256"/>
<path d="M247.704 42.2049V35.1194H248.707V36.1247C249.192 35.3464 249.888 34.9573 250.794 34.9573C251.183 34.9573 251.555 35.0383 251.878 35.1843C252.202 35.3302 252.461 35.541 252.623 35.7842C252.784 36.0274 252.898 36.3355 252.962 36.676C252.995 36.903 253.027 37.2921 253.027 37.8434V42.1887H251.911V37.8758C251.911 37.3894 251.862 37.0165 251.781 36.7732C251.7 36.53 251.539 36.3355 251.328 36.1895C251.102 36.0436 250.859 35.9788 250.552 35.9788C250.082 35.9788 249.678 36.1409 249.322 36.4652C248.966 36.7895 248.804 37.4056 248.804 38.3136V42.1725H247.704V42.2049Z" stroke="black" stroke-width="0.216" stroke-miterlimit="22.9256"/>
<path d="M258.982 41.3294C258.577 41.7023 258.173 41.9779 257.801 42.1239C257.412 42.286 257.008 42.3509 256.571 42.3509C255.859 42.3509 255.293 42.1563 254.921 41.7834C254.532 41.4105 254.338 40.924 254.338 40.3241C254.338 39.9836 254.403 39.6593 254.565 39.3675C254.71 39.0756 254.904 38.8486 255.131 38.6703C255.374 38.4919 255.632 38.3622 255.924 38.2811C256.134 38.2163 256.474 38.1514 256.911 38.1028C257.801 37.9893 258.464 37.8434 258.885 37.6974C258.885 37.5353 258.885 37.4218 258.885 37.3894C258.885 36.903 258.788 36.5625 258.577 36.3517C258.286 36.076 257.865 35.9463 257.315 35.9463C256.797 35.9463 256.409 36.0436 256.166 36.2382C255.924 36.4328 255.729 36.7895 255.616 37.2921L254.532 37.13C254.629 36.6273 254.791 36.222 255.018 35.9139C255.244 35.6058 255.568 35.3626 256.005 35.2005C256.425 35.0383 256.927 34.9573 257.493 34.9573C258.043 34.9573 258.512 35.0221 258.852 35.1681C259.208 35.314 259.467 35.4923 259.629 35.7031C259.791 35.9139 259.904 36.1895 259.969 36.5138C260.001 36.7246 260.017 37.0813 260.017 37.6164V39.2216C260.017 40.3403 260.033 41.0375 260.082 41.3456C260.131 41.6374 260.228 41.9293 260.357 42.1887H259.192C259.079 41.9617 259.014 41.6699 258.982 41.3294ZM258.885 38.6541C258.48 38.8324 257.881 38.9783 257.072 39.1081C256.619 39.1729 256.296 39.254 256.102 39.3513C255.907 39.4323 255.762 39.5621 255.665 39.7404C255.568 39.9188 255.519 40.0971 255.519 40.3079C255.519 40.6322 255.632 40.8916 255.859 41.1024C256.085 41.3132 256.409 41.4267 256.846 41.4267C257.267 41.4267 257.655 41.3294 257.979 41.1186C258.318 40.9078 258.561 40.6322 258.707 40.2917C258.82 40.016 258.885 39.6269 258.885 39.0918V38.6541Z" stroke="black" stroke-width="0.216" stroke-miterlimit="22.9256"/>
<path d="M137.29 65.6989V48.4796H143.293C144.523 48.4796 145.494 48.658 146.238 48.9985C146.982 49.339 147.549 49.8902 147.969 50.6036C148.39 51.3333 148.6 52.0791 148.6 52.8736C148.6 53.6032 148.422 54.3004 148.05 54.949C147.678 55.5976 147.112 56.1164 146.367 56.5218C147.338 56.8298 148.083 57.3487 148.6 58.0783C149.118 58.8079 149.377 59.6835 149.377 60.6888C149.377 61.4995 149.215 62.2453 148.908 62.9425C148.584 63.6397 148.196 64.1748 147.727 64.5477C147.257 64.9206 146.675 65.2125 145.979 65.3908C145.283 65.5854 144.41 65.6827 143.39 65.6827H137.29V65.6989ZM139.41 55.7111H142.872C143.811 55.7111 144.491 55.6462 144.895 55.5165C145.429 55.3381 145.833 55.0625 146.109 54.6572C146.384 54.2518 146.513 53.7492 146.513 53.1493C146.513 52.5818 146.384 52.0791 146.125 51.6413C145.866 51.2036 145.51 50.9117 145.041 50.7496C144.571 50.5874 143.762 50.5064 142.597 50.5064H139.394V55.7111H139.41ZM139.41 63.6559H143.39C144.07 63.6559 144.555 63.6235 144.83 63.5749C145.316 63.4776 145.72 63.3316 146.06 63.1047C146.384 62.8777 146.659 62.5696 146.869 62.148C147.079 61.7265 147.193 61.24 147.193 60.705C147.193 60.0564 147.047 59.5051 146.74 59.0349C146.432 58.5647 146.011 58.2242 145.461 58.0297C144.927 57.8351 144.135 57.7378 143.115 57.7378H139.41V63.6559Z" fill="black"/>
<path d="M159.618 64.1585C158.89 64.8233 158.194 65.2935 157.515 65.5691C156.835 65.8447 156.123 65.9744 155.346 65.9744C154.068 65.9744 153.097 65.634 152.402 64.9692C151.722 64.3044 151.382 63.4451 151.382 62.4074C151.382 61.7912 151.512 61.24 151.771 60.7373C152.029 60.2347 152.369 59.8293 152.79 59.5213C153.211 59.2132 153.68 58.9862 154.214 58.8241C154.602 58.7106 155.185 58.6133 155.961 58.4998C157.547 58.289 158.712 58.0458 159.472 57.7702C159.472 57.4783 159.489 57.2999 159.489 57.2189C159.489 56.3595 159.294 55.7434 158.938 55.4029C158.437 54.9327 157.693 54.6895 156.706 54.6895C155.783 54.6895 155.104 54.8678 154.651 55.2083C154.198 55.5488 153.89 56.1812 153.68 57.0567L151.754 56.7811C151.932 55.8893 152.224 55.1759 152.612 54.6408C153.016 54.0896 153.599 53.6842 154.343 53.3924C155.104 53.1005 155.977 52.9546 156.981 52.9546C157.968 52.9546 158.777 53.0843 159.391 53.3275C160.006 53.5707 160.459 53.895 160.751 54.2679C161.042 54.6408 161.252 55.1273 161.365 55.711C161.43 56.0677 161.463 56.7162 161.463 57.6567V60.4779C161.463 62.4398 161.511 63.6883 161.592 64.2071C161.673 64.726 161.835 65.2286 162.094 65.6988H160.022C159.812 65.261 159.683 64.7422 159.618 64.1585ZM159.456 59.4402C158.744 59.7483 157.676 60.0239 156.236 60.2347C155.427 60.3644 154.861 60.4941 154.521 60.6562C154.181 60.8184 153.923 61.0454 153.745 61.3372C153.567 61.6453 153.469 61.9696 153.469 62.3425C153.469 62.91 153.664 63.3802 154.068 63.7531C154.473 64.126 155.039 64.3206 155.816 64.3206C156.576 64.3206 157.239 64.1423 157.838 63.7855C158.437 63.4288 158.858 62.9424 159.133 62.3263C159.343 61.8561 159.456 61.1427 159.456 60.2185V59.4402Z" fill="black"/>
<path d="M164.505 65.699V48.4797H166.479V58.2892L171.139 53.2142H173.679L169.246 57.8352L174.132 65.6828H171.705L167.87 59.3107L166.479 60.7375V65.6828H164.505V65.699Z" fill="black"/>
<path d="M176.365 65.6989V53.2303H178.339V65.6989H176.365Z" fill="black"/>
<path d="M188.306 65.6989V48.4796H191.494L195.28 60.6726C195.636 61.8075 195.879 62.6507 196.04 63.2182C196.218 62.5858 196.51 61.6778 196.898 60.4618L200.733 48.4796H203.58V65.6989H201.542V51.2846L196.882 65.6989H194.973L190.345 51.0414V65.6989H188.306Z" fill="black"/>
<path d="M214.357 65.6991V63.8669C213.451 65.2776 212.221 65.9748 210.668 65.9748C209.988 65.9748 209.341 65.8288 208.742 65.5532C208.144 65.2775 207.707 64.9208 207.415 64.4831C207.124 64.0615 206.93 63.5264 206.801 62.9103C206.72 62.4887 206.687 61.8402 206.687 60.9322V53.1981H208.661V60.1215C208.661 61.2241 208.694 61.9699 208.775 62.359C208.904 62.9103 209.163 63.3481 209.567 63.6724C209.972 63.9966 210.457 64.1426 211.056 64.1426C211.655 64.1426 212.205 63.9804 212.723 63.6562C213.24 63.3319 213.613 62.8941 213.823 62.3266C214.033 61.7591 214.147 60.9484 214.147 59.8945V53.2143H216.121V65.6829H214.357V65.6991Z" fill="black"/>
<path d="M218.419 61.9698L220.36 61.6455C220.474 62.4886 220.765 63.121 221.266 63.575C221.768 64.029 222.464 64.2397 223.354 64.2397C224.26 64.2397 224.923 64.0452 225.36 63.6398C225.797 63.2507 226.007 62.7805 226.007 62.2454C226.007 61.7752 225.813 61.3861 225.425 61.1104C225.15 60.9159 224.486 60.6889 223.418 60.397C221.978 60.0079 220.975 59.6674 220.425 59.3755C219.875 59.0837 219.438 58.6945 219.163 58.1919C218.872 57.6893 218.726 57.138 218.726 56.5219C218.726 55.9706 218.839 55.4517 219.082 54.9815C219.325 54.5113 219.648 54.1222 220.053 53.7979C220.36 53.5547 220.781 53.3439 221.299 53.1818C221.833 53.0196 222.399 52.9224 222.998 52.9224C223.904 52.9224 224.713 53.0683 225.392 53.3439C226.072 53.6196 226.59 54.0087 226.913 54.4951C227.237 54.9815 227.464 55.6139 227.593 56.4246L225.668 56.7002C225.587 56.0517 225.328 55.549 224.907 55.1923C224.486 54.8356 223.904 54.6573 223.127 54.6573C222.221 54.6573 221.574 54.8194 221.186 55.1437C220.797 55.468 220.603 55.8409 220.603 56.2787C220.603 56.5543 220.684 56.7975 220.846 57.0245C221.008 57.2515 221.25 57.4461 221.606 57.592C221.8 57.6731 222.383 57.8514 223.338 58.1271C224.729 58.5324 225.7 58.8567 226.25 59.0999C226.8 59.3593 227.237 59.716 227.544 60.2024C227.852 60.6889 228.014 61.2888 228.014 62.0184C228.014 62.7156 227.82 63.3804 227.447 64.0127C227.075 64.6451 226.509 65.1153 225.797 65.4558C225.085 65.7963 224.26 65.9746 223.354 65.9746C221.849 65.9746 220.7 65.6341 219.907 64.9694C219.147 64.2884 218.629 63.2993 218.419 61.9698Z" fill="black"/>
<path d="M230.408 50.9118V48.4797H232.382V50.9118H230.408ZM230.408 65.699V53.2304H232.382V65.699H230.408Z" fill="black"/>
<path d="M242.754 70.4661V64.3534C242.446 64.8236 242.026 65.1965 241.476 65.5046C240.925 65.8126 240.343 65.9586 239.728 65.9586C238.353 65.9586 237.172 65.3749 236.168 64.1912C235.181 63.0076 234.68 61.3862 234.68 59.327C234.68 58.0786 234.89 56.9436 235.295 55.9545C235.699 54.9655 236.282 54.2034 237.058 53.7008C237.819 53.1819 238.676 52.9387 239.583 52.9387C241.023 52.9387 242.139 53.5873 242.964 54.8844V53.2144H244.728V70.4661H242.754ZM236.702 59.4243C236.702 61.0295 237.01 62.2293 237.641 63.04C238.272 63.8507 239.016 64.2399 239.89 64.2399C240.731 64.2399 241.443 63.8507 242.058 63.0887C242.657 62.3266 242.964 61.1592 242.964 59.6027C242.964 57.9488 242.641 56.7004 242.01 55.8572C241.379 55.0141 240.618 54.6088 239.76 54.6088C238.903 54.6088 238.191 54.9979 237.592 55.7762C236.994 56.5544 236.702 57.7705 236.702 59.4243Z" fill="black"/>
<path d="M247.818 50.9118V48.4797H249.792V50.9118H247.818ZM247.818 65.699V53.2304H249.792V65.699H247.818Z" fill="black"/>
<path d="M135.623 88.5932L141.771 71.3739H144.053L150.606 88.5932H148.195L146.334 83.3723H139.636L137.872 88.5932H135.623ZM140.234 81.5239H145.671L144.004 76.757C143.487 75.3139 143.114 74.1141 142.872 73.1899C142.661 74.2924 142.386 75.395 142.014 76.4813L140.234 81.5239Z" fill="black"/>
<path d="M152.062 88.5933V71.3903H154.036V81.1997L158.696 76.1247H161.236L156.803 80.7457L161.689 88.5933H159.262L155.427 82.2212L154.036 83.648V88.5933H152.062Z" fill="black"/>
<path d="M170.815 87.0527C170.086 87.7175 169.391 88.1877 168.711 88.4634C168.032 88.739 167.32 88.8687 166.543 88.8687C165.265 88.8687 164.294 88.5282 163.598 87.8634C162.919 87.1987 162.579 86.3393 162.579 85.3016C162.579 84.6855 162.708 84.1342 162.967 83.6316C163.226 83.129 163.566 82.7236 163.986 82.4155C164.407 82.1075 164.876 81.8805 165.41 81.7183C165.799 81.6048 166.381 81.5076 167.158 81.3941C168.743 81.1833 169.908 80.9401 170.669 80.6644C170.669 80.3726 170.685 80.1942 170.685 80.1132C170.685 79.2538 170.491 78.6377 170.135 78.2972C169.633 77.827 168.889 77.5838 167.902 77.5838C166.98 77.5838 166.3 77.7621 165.847 78.1026C165.41 78.4431 165.087 79.0755 164.876 79.951L162.951 79.6754C163.129 78.7998 163.42 78.0702 163.808 77.5351C164.213 77.0001 164.795 76.5785 165.54 76.2867C166.3 75.9948 167.174 75.8489 168.177 75.8489C169.164 75.8489 169.973 75.9786 170.588 76.2218C171.203 76.465 171.656 76.7893 171.947 77.1622C172.238 77.5351 172.449 78.0216 172.562 78.6053C172.627 78.962 172.659 79.6105 172.659 80.5509V83.3722C172.659 85.3341 172.708 86.5825 172.789 87.1014C172.869 87.6202 173.031 88.1229 173.29 88.5931H171.235C170.993 88.1553 170.863 87.6365 170.815 87.0527ZM170.653 82.3345C169.941 82.6425 168.873 82.9182 167.433 83.129C166.624 83.2587 166.058 83.3884 165.718 83.5505C165.378 83.7127 165.119 83.9397 164.941 84.2315C164.763 84.5396 164.666 84.8639 164.666 85.2368C164.666 85.8043 164.86 86.2745 165.265 86.6474C165.669 87.0203 166.236 87.2149 167.012 87.2149C167.773 87.2149 168.436 87.0365 169.035 86.6798C169.633 86.3231 170.054 85.8367 170.329 85.2206C170.539 84.7504 170.653 84.0369 170.653 83.1127V82.3345Z" fill="black"/>
<path d="M183.209 88.593V87.0202C182.465 88.2525 181.397 88.8686 179.957 88.8686C179.035 88.8686 178.177 88.593 177.401 88.0417C176.624 87.4905 176.025 86.7284 175.605 85.7393C175.184 84.7503 174.958 83.6315 174.958 82.3506C174.958 81.1021 175.152 79.9834 175.54 78.9619C175.928 77.9404 176.511 77.1784 177.271 76.6271C178.032 76.0758 178.906 75.8164 179.86 75.8164C180.556 75.8164 181.187 75.9785 181.721 76.2866C182.271 76.6109 182.708 77.0162 183.048 77.5188V71.3413H185.005V88.5606H183.209V88.593ZM176.996 82.3668C176.996 83.9558 177.304 85.1556 177.935 85.9501C178.566 86.7446 179.294 87.1337 180.151 87.1337C181.009 87.1337 181.737 86.7608 182.336 85.9988C182.934 85.2367 183.242 84.0855 183.242 82.5452C183.242 80.8427 182.934 79.578 182.32 78.7835C181.705 77.989 180.96 77.5837 180.054 77.5837C179.181 77.5837 178.452 77.9728 177.87 78.7349C177.287 79.5132 176.996 80.7292 176.996 82.3668Z" fill="black"/>
<path d="M196.072 84.5882L198.111 84.8639C197.787 86.1448 197.189 87.1338 196.331 87.831C195.458 88.5282 194.357 88.8849 193.014 88.8849C191.315 88.8849 189.972 88.3174 188.969 87.1987C187.966 86.0799 187.481 84.4909 187.481 82.4642C187.481 80.3726 187.982 78.735 188.985 77.5838C189.989 76.4326 191.299 75.8489 192.901 75.8489C194.454 75.8489 195.716 76.4164 196.703 77.5513C197.69 78.6863 198.176 80.2753 198.176 82.3345C198.176 82.4642 198.176 82.6425 198.16 82.902H189.503C189.568 84.2802 189.94 85.3178 190.587 86.0475C191.234 86.7771 192.043 87.1338 193.014 87.1338C193.742 87.1338 194.357 86.923 194.859 86.5177C195.36 86.1123 195.781 85.4638 196.072 84.5882ZM189.616 81.1671H196.089C196.008 80.1132 195.749 79.3349 195.344 78.7998C194.713 77.9891 193.904 77.5838 192.901 77.5838C191.995 77.5838 191.234 77.9081 190.62 78.5566C190.021 79.2052 189.681 80.0807 189.616 81.1671Z" fill="black"/>
<path d="M200.57 88.5929V76.1244H202.334V77.8755C202.69 77.2594 203.176 76.7729 203.79 76.4C204.389 76.0271 205.085 75.8487 205.861 75.8487C206.719 75.8487 207.431 76.0433 207.981 76.4162C208.531 76.8054 208.919 77.3404 209.146 78.0214C210.068 76.5622 211.266 75.8325 212.722 75.8325C213.871 75.8325 214.761 76.173 215.375 76.854C215.99 77.535 216.298 78.5889 216.298 80.0157V88.5767H214.34V80.7291C214.34 79.886 214.275 79.2699 214.146 78.897C214.016 78.524 213.79 78.2322 213.45 78.0052C213.11 77.7782 212.722 77.6647 212.269 77.6647C211.46 77.6647 210.78 77.9566 210.23 78.5403C209.68 79.124 209.421 80.0644 209.421 81.3453V88.5929H207.447V80.4859C207.447 79.5455 207.285 78.8483 206.962 78.3781C206.638 77.9079 206.12 77.6809 205.392 77.6809C204.842 77.6809 204.324 77.8431 203.855 78.1511C203.386 78.4592 203.046 78.9294 202.836 79.5293C202.625 80.1292 202.512 81.0048 202.512 82.1398V88.6092H200.57V88.5929Z" fill="black"/>
<path d="M219.227 73.806V71.3739H221.201V73.806H219.227ZM219.227 88.5932V76.1246H221.201V88.5932H219.227Z" fill="black"/>
<path d="M224.096 93.3926L223.886 91.4144C224.323 91.5442 224.695 91.609 225.019 91.609C225.456 91.609 225.811 91.5279 226.07 91.382C226.329 91.2361 226.54 91.0091 226.718 90.7172C226.847 90.5065 227.041 89.9876 227.316 89.1445C227.349 89.031 227.413 88.8526 227.494 88.6256L223.093 76.1246H225.213L227.624 83.3399C227.931 84.2641 228.222 85.2207 228.465 86.226C228.692 85.2531 228.967 84.3127 229.274 83.3885L231.75 76.1246H233.707L229.29 88.804C228.821 90.1822 228.449 91.1226 228.19 91.6414C227.834 92.3386 227.446 92.8413 226.993 93.1656C226.54 93.4898 226.006 93.652 225.375 93.652C224.986 93.652 224.566 93.5709 224.096 93.3926Z" fill="black"/>
<path d="M242.946 87.0527C242.218 87.7175 241.523 88.1877 240.843 88.4634C240.163 88.739 239.452 88.8687 238.675 88.8687C237.397 88.8687 236.426 88.5282 235.73 87.8634C235.05 87.1987 234.711 86.3393 234.711 85.3016C234.711 84.6855 234.84 84.1342 235.099 83.6316C235.358 83.129 235.698 82.7236 236.118 82.4155C236.539 82.1075 237.008 81.8805 237.542 81.7183C237.931 81.6048 238.513 81.5076 239.29 81.3941C240.875 81.1833 242.04 80.9401 242.801 80.6644C242.801 80.3726 242.817 80.1942 242.817 80.1132C242.817 79.2538 242.623 78.6377 242.267 78.2972C241.765 77.827 241.021 77.5838 240.034 77.5838C239.112 77.5838 238.432 77.7621 237.979 78.1026C237.542 78.4431 237.219 79.0755 237.008 79.951L235.083 79.6754C235.261 78.7998 235.552 78.0702 235.94 77.5351C236.345 77.0001 236.927 76.5785 237.672 76.2867C238.432 75.9948 239.306 75.8489 240.309 75.8489C241.296 75.8489 242.105 75.9786 242.72 76.2218C243.335 76.465 243.788 76.7893 244.079 77.1622C244.37 77.5351 244.581 78.0216 244.694 78.6053C244.759 78.962 244.791 79.6105 244.791 80.5509V83.3722C244.791 85.3341 244.84 86.5825 244.92 87.1014C245.001 87.6202 245.163 88.1229 245.422 88.5931H243.367C243.141 88.1553 243.011 87.6365 242.946 87.0527ZM242.785 82.3345C242.073 82.6425 241.005 82.9182 239.565 83.129C238.756 83.2587 238.189 83.3884 237.85 83.5505C237.51 83.7127 237.251 83.9397 237.073 84.2315C236.895 84.5396 236.798 84.8639 236.798 85.2368C236.798 85.8043 236.992 86.2745 237.397 86.6474C237.801 87.0203 238.367 87.2149 239.144 87.2149C239.905 87.2149 240.568 87.0365 241.167 86.6798C241.765 86.3231 242.186 85.8367 242.461 85.2206C242.671 84.7504 242.785 84.0369 242.785 83.1127V82.3345Z" fill="black"/>
<path d="M247.04 84.8803L248.982 84.556C249.095 85.3991 249.387 86.0315 249.888 86.4855C250.39 86.9395 251.085 87.1503 251.975 87.1503C252.881 87.1503 253.545 86.9557 253.982 86.5503C254.419 86.1612 254.629 85.691 254.629 85.1559C254.629 84.6857 254.435 84.2966 254.046 84.021C253.771 83.8264 253.108 83.5994 252.04 83.3075C250.6 82.9184 249.597 82.5779 249.047 82.2861C248.497 81.9942 248.06 81.6051 247.785 81.1024C247.493 80.5998 247.348 80.0323 247.348 79.4324C247.348 78.8811 247.461 78.3623 247.704 77.8921C247.947 77.4219 248.27 77.0165 248.675 76.7084C248.982 76.4652 249.403 76.2544 249.921 76.0923C250.454 75.9302 251.021 75.8329 251.619 75.8329C252.526 75.8329 253.335 75.9788 254.014 76.2545C254.694 76.5301 255.211 76.9192 255.535 77.4056C255.859 77.8921 256.085 78.5244 256.215 79.3351L254.289 79.6108C254.208 78.9622 253.949 78.4758 253.529 78.1028C253.108 77.7461 252.526 77.5678 251.749 77.5678C250.843 77.5678 250.196 77.7299 249.807 78.0542C249.419 78.3785 249.225 78.7514 249.225 79.1892C249.225 79.4648 249.306 79.708 249.467 79.935C249.629 80.162 249.872 80.3566 250.228 80.5025C250.422 80.5836 251.005 80.7619 251.959 81.0376C253.351 81.4429 254.322 81.7672 254.872 82.0104C255.422 82.2698 255.859 82.6428 256.166 83.113C256.474 83.5994 256.635 84.1993 256.635 84.9289C256.635 85.6261 256.441 86.2909 256.069 86.9233C255.697 87.5556 255.131 88.0258 254.419 88.3663C253.707 88.7068 252.881 88.8852 251.975 88.8852C250.471 88.8852 249.322 88.5447 248.529 87.8799C247.752 87.1989 247.251 86.1936 247.04 84.8803Z" fill="black"/>
<path d="M259.693 88.5932V76.1246H261.667V88.5932H259.693Z" fill="black"/>
<path d="M137.29 65.6989V48.4796H143.293C144.523 48.4796 145.494 48.658 146.238 48.9985C146.982 49.339 147.549 49.8902 147.969 50.6036C148.39 51.3333 148.6 52.0791 148.6 52.8736C148.6 53.6032 148.422 54.3004 148.05 54.949C147.678 55.5976 147.112 56.1164 146.367 56.5218C147.338 56.8298 148.083 57.3487 148.6 58.0783C149.118 58.8079 149.377 59.6835 149.377 60.6888C149.377 61.4995 149.215 62.2453 148.908 62.9425C148.584 63.6397 148.196 64.1748 147.727 64.5477C147.257 64.9206 146.675 65.2125 145.979 65.3908C145.283 65.5854 144.41 65.6827 143.39 65.6827H137.29V65.6989ZM139.41 55.7111H142.872C143.811 55.7111 144.491 55.6462 144.895 55.5165C145.429 55.3381 145.833 55.0625 146.109 54.6572C146.384 54.2518 146.513 53.7492 146.513 53.1493C146.513 52.5818 146.384 52.0791 146.125 51.6413C145.866 51.2036 145.51 50.9117 145.041 50.7496C144.571 50.5874 143.762 50.5064 142.597 50.5064H139.394V55.7111H139.41ZM139.41 63.6559H143.39C144.07 63.6559 144.555 63.6235 144.83 63.5749C145.316 63.4776 145.72 63.3316 146.06 63.1047C146.384 62.8777 146.659 62.5696 146.869 62.148C147.079 61.7265 147.193 61.24 147.193 60.705C147.193 60.0564 147.047 59.5051 146.74 59.0349C146.432 58.5647 146.011 58.2242 145.461 58.0297C144.927 57.8351 144.135 57.7378 143.115 57.7378H139.41V63.6559V63.6559Z" stroke="black" stroke-width="0.216" stroke-miterlimit="22.9256"/>
<path d="M159.618 64.1585C158.89 64.8233 158.194 65.2935 157.515 65.5691C156.835 65.8447 156.123 65.9744 155.346 65.9744C154.068 65.9744 153.097 65.634 152.402 64.9692C151.722 64.3044 151.382 63.4451 151.382 62.4074C151.382 61.7912 151.512 61.24 151.771 60.7373C152.029 60.2347 152.369 59.8293 152.79 59.5213C153.211 59.2132 153.68 58.9862 154.214 58.8241C154.602 58.7106 155.185 58.6133 155.961 58.4998C157.547 58.289 158.712 58.0458 159.472 57.7702C159.472 57.4783 159.489 57.2999 159.489 57.2189C159.489 56.3595 159.294 55.7434 158.938 55.4029C158.437 54.9327 157.693 54.6895 156.706 54.6895C155.783 54.6895 155.104 54.8678 154.651 55.2083C154.198 55.5488 153.89 56.1812 153.68 57.0567L151.754 56.7811C151.932 55.8893 152.224 55.1759 152.612 54.6408C153.016 54.0896 153.599 53.6842 154.343 53.3924C155.104 53.1005 155.977 52.9546 156.981 52.9546C157.968 52.9546 158.777 53.0843 159.391 53.3275C160.006 53.5707 160.459 53.895 160.751 54.2679C161.042 54.6408 161.252 55.1273 161.365 55.711C161.43 56.0677 161.463 56.7162 161.463 57.6567V60.4779C161.463 62.4398 161.511 63.6883 161.592 64.2071C161.673 64.726 161.835 65.2286 162.094 65.6988H160.022C159.812 65.261 159.683 64.7422 159.618 64.1585ZM159.456 59.4402C158.744 59.7483 157.676 60.0239 156.236 60.2347C155.427 60.3644 154.861 60.4941 154.521 60.6562C154.181 60.8184 153.923 61.0454 153.745 61.3372C153.567 61.6453 153.469 61.9696 153.469 62.3425C153.469 62.91 153.664 63.3802 154.068 63.7531C154.473 64.126 155.039 64.3206 155.816 64.3206C156.576 64.3206 157.239 64.1423 157.838 63.7855C158.437 63.4288 158.858 62.9424 159.133 62.3263C159.343 61.8561 159.456 61.1427 159.456 60.2185V59.4402Z" stroke="black" stroke-width="0.216" stroke-miterlimit="22.9256"/>
<path d="M164.505 65.699V48.4797H166.479V58.2892L171.139 53.2142H173.679L169.246 57.8352L174.132 65.6828H171.705L167.87 59.3107L166.479 60.7375V65.6828H164.505V65.699Z" stroke="black" stroke-width="0.216" stroke-miterlimit="22.9256"/>
<path d="M176.365 65.6989V53.2303H178.339V65.6989H176.365Z" stroke="black" stroke-width="0.216" stroke-miterlimit="22.9256"/>
<path d="M188.306 65.6989V48.4796H191.494L195.28 60.6726C195.636 61.8075 195.879 62.6507 196.04 63.2182C196.218 62.5858 196.51 61.6778 196.898 60.4618L200.733 48.4796H203.58V65.6989H201.542V51.2846L196.882 65.6989H194.973L190.345 51.0414V65.6989H188.306V65.6989Z" stroke="black" stroke-width="0.216" stroke-miterlimit="22.9256"/>
<path d="M214.357 65.6991V63.8669C213.451 65.2776 212.221 65.9748 210.668 65.9748C209.988 65.9748 209.341 65.8288 208.742 65.5532C208.144 65.2775 207.707 64.9208 207.415 64.4831C207.124 64.0615 206.93 63.5264 206.801 62.9103C206.72 62.4887 206.687 61.8402 206.687 60.9322V53.1981H208.661V60.1215C208.661 61.2241 208.694 61.9699 208.775 62.359C208.904 62.9103 209.163 63.3481 209.567 63.6724C209.972 63.9966 210.457 64.1426 211.056 64.1426C211.655 64.1426 212.205 63.9804 212.723 63.6562C213.24 63.3319 213.613 62.8941 213.823 62.3266C214.033 61.7591 214.147 60.9484 214.147 59.8945V53.2143H216.121V65.6829H214.357V65.6991Z" stroke="black" stroke-width="0.216" stroke-miterlimit="22.9256"/>
<path d="M218.419 61.9698L220.36 61.6455C220.474 62.4886 220.765 63.121 221.266 63.575C221.768 64.029 222.464 64.2397 223.354 64.2397C224.26 64.2397 224.923 64.0452 225.36 63.6398C225.797 63.2507 226.007 62.7805 226.007 62.2454C226.007 61.7752 225.813 61.3861 225.425 61.1104C225.15 60.9159 224.486 60.6889 223.418 60.397C221.978 60.0079 220.975 59.6674 220.425 59.3755C219.875 59.0837 219.438 58.6945 219.163 58.1919C218.872 57.6893 218.726 57.138 218.726 56.5219C218.726 55.9706 218.839 55.4517 219.082 54.9815C219.325 54.5113 219.648 54.1222 220.053 53.7979C220.36 53.5547 220.781 53.3439 221.299 53.1818C221.833 53.0196 222.399 52.9224 222.998 52.9224C223.904 52.9224 224.713 53.0683 225.392 53.3439C226.072 53.6196 226.59 54.0087 226.913 54.4951C227.237 54.9815 227.464 55.6139 227.593 56.4246L225.668 56.7002C225.587 56.0517 225.328 55.549 224.907 55.1923C224.486 54.8356 223.904 54.6573 223.127 54.6573C222.221 54.6573 221.574 54.8194 221.186 55.1437C220.797 55.468 220.603 55.8409 220.603 56.2787C220.603 56.5543 220.684 56.7975 220.846 57.0245C221.008 57.2515 221.25 57.4461 221.606 57.592C221.8 57.6731 222.383 57.8514 223.338 58.1271C224.729 58.5324 225.7 58.8567 226.25 59.0999C226.8 59.3593 227.237 59.716 227.544 60.2024C227.852 60.6889 228.014 61.2888 228.014 62.0184C228.014 62.7156 227.82 63.3804 227.447 64.0127C227.075 64.6451 226.509 65.1153 225.797 65.4558C225.085 65.7963 224.26 65.9746 223.354 65.9746C221.849 65.9746 220.7 65.6341 219.907 64.9694C219.147 64.2884 218.629 63.2993 218.419 61.9698Z" stroke="black" stroke-width="0.216" stroke-miterlimit="22.9256"/>
<path d="M230.408 50.9118V48.4797H232.382V50.9118H230.408ZM230.408 65.699V53.2304H232.382V65.699H230.408Z" stroke="black" stroke-width="0.216" stroke-miterlimit="22.9256"/>
<path d="M242.754 70.4661V64.3534C242.446 64.8236 242.026 65.1965 241.476 65.5046C240.925 65.8126 240.343 65.9586 239.728 65.9586C238.353 65.9586 237.172 65.3749 236.168 64.1912C235.181 63.0076 234.68 61.3862 234.68 59.327C234.68 58.0786 234.89 56.9436 235.295 55.9545C235.699 54.9655 236.282 54.2034 237.058 53.7008C237.819 53.1819 238.676 52.9387 239.583 52.9387C241.023 52.9387 242.139 53.5873 242.964 54.8844V53.2144H244.728V70.4661H242.754ZM236.702 59.4243C236.702 61.0295 237.01 62.2293 237.641 63.04C238.272 63.8507 239.016 64.2399 239.89 64.2399C240.731 64.2399 241.443 63.8507 242.058 63.0887C242.657 62.3266 242.964 61.1592 242.964 59.6027C242.964 57.9488 242.641 56.7004 242.01 55.8572C241.379 55.0141 240.618 54.6088 239.76 54.6088C238.903 54.6088 238.191 54.9979 237.592 55.7762C236.994 56.5544 236.702 57.7705 236.702 59.4243Z" stroke="black" stroke-width="0.216" stroke-miterlimit="22.9256"/>
<path d="M247.818 50.9118V48.4797H249.792V50.9118H247.818ZM247.818 65.699V53.2304H249.792V65.699H247.818Z" stroke="black" stroke-width="0.216" stroke-miterlimit="22.9256"/>
<path d="M135.623 88.5932L141.771 71.3739H144.053L150.606 88.5932H148.195L146.334 83.3723H139.636L137.872 88.5932H135.623ZM140.234 81.5239H145.671L144.004 76.757C143.487 75.3139 143.114 74.1141 142.872 73.1899C142.661 74.2924 142.386 75.395 142.014 76.4813L140.234 81.5239Z" stroke="black" stroke-width="0.216" stroke-miterlimit="22.9256"/>
<path d="M152.062 88.5933V71.3903H154.036V81.1997L158.696 76.1247H161.236L156.803 80.7457L161.689 88.5933H159.262L155.427 82.2212L154.036 83.648V88.5933H152.062V88.5933Z" stroke="black" stroke-width="0.216" stroke-miterlimit="22.9256"/>
<path d="M170.815 87.0527C170.086 87.7175 169.391 88.1877 168.711 88.4634C168.032 88.739 167.32 88.8687 166.543 88.8687C165.265 88.8687 164.294 88.5282 163.598 87.8634C162.919 87.1987 162.579 86.3393 162.579 85.3016C162.579 84.6855 162.708 84.1342 162.967 83.6316C163.226 83.129 163.566 82.7236 163.986 82.4155C164.407 82.1075 164.876 81.8805 165.41 81.7183C165.799 81.6048 166.381 81.5076 167.158 81.3941C168.743 81.1833 169.908 80.9401 170.669 80.6644C170.669 80.3726 170.685 80.1942 170.685 80.1132C170.685 79.2538 170.491 78.6377 170.135 78.2972C169.633 77.827 168.889 77.5838 167.902 77.5838C166.98 77.5838 166.3 77.7621 165.847 78.1026C165.41 78.4431 165.087 79.0755 164.876 79.951L162.951 79.6754C163.129 78.7998 163.42 78.0702 163.808 77.5351C164.213 77.0001 164.795 76.5785 165.54 76.2867C166.3 75.9948 167.174 75.8489 168.177 75.8489C169.164 75.8489 169.973 75.9786 170.588 76.2218C171.203 76.465 171.656 76.7893 171.947 77.1622C172.238 77.5351 172.449 78.0216 172.562 78.6053C172.627 78.962 172.659 79.6105 172.659 80.5509V83.3722C172.659 85.3341 172.708 86.5825 172.789 87.1014C172.869 87.6202 173.031 88.1229 173.29 88.5931H171.235C170.993 88.1553 170.863 87.6365 170.815 87.0527ZM170.653 82.3345C169.941 82.6425 168.873 82.9182 167.433 83.129C166.624 83.2587 166.058 83.3884 165.718 83.5505C165.378 83.7127 165.119 83.9397 164.941 84.2315C164.763 84.5396 164.666 84.8639 164.666 85.2368C164.666 85.8043 164.86 86.2745 165.265 86.6474C165.669 87.0203 166.236 87.2149 167.012 87.2149C167.773 87.2149 168.436 87.0365 169.035 86.6798C169.633 86.3231 170.054 85.8367 170.329 85.2206C170.539 84.7504 170.653 84.0369 170.653 83.1127V82.3345Z" stroke="black" stroke-width="0.216" stroke-miterlimit="22.9256"/>
<path d="M183.209 88.593V87.0202C182.465 88.2525 181.397 88.8686 179.957 88.8686C179.035 88.8686 178.177 88.593 177.401 88.0417C176.624 87.4905 176.025 86.7284 175.605 85.7393C175.184 84.7503 174.958 83.6315 174.958 82.3506C174.958 81.1021 175.152 79.9834 175.54 78.9619C175.928 77.9404 176.511 77.1784 177.271 76.6271C178.032 76.0758 178.906 75.8164 179.86 75.8164C180.556 75.8164 181.187 75.9785 181.721 76.2866C182.271 76.6109 182.708 77.0162 183.048 77.5188V71.3413H185.005V88.5606H183.209V88.593ZM176.996 82.3668C176.996 83.9558 177.304 85.1556 177.935 85.9501C178.566 86.7446 179.294 87.1337 180.151 87.1337C181.009 87.1337 181.737 86.7608 182.336 85.9988C182.934 85.2367 183.242 84.0855 183.242 82.5452C183.242 80.8427 182.934 79.578 182.32 78.7835C181.705 77.989 180.96 77.5837 180.054 77.5837C179.181 77.5837 178.452 77.9728 177.87 78.7349C177.287 79.5132 176.996 80.7292 176.996 82.3668Z" stroke="black" stroke-width="0.216" stroke-miterlimit="22.9256"/>
<path d="M196.072 84.5882L198.111 84.8639C197.787 86.1448 197.189 87.1338 196.331 87.831C195.458 88.5282 194.357 88.8849 193.014 88.8849C191.315 88.8849 189.972 88.3174 188.969 87.1987C187.966 86.0799 187.481 84.4909 187.481 82.4642C187.481 80.3726 187.982 78.735 188.985 77.5838C189.989 76.4326 191.299 75.8489 192.901 75.8489C194.454 75.8489 195.716 76.4164 196.703 77.5513C197.69 78.6863 198.176 80.2753 198.176 82.3345C198.176 82.4642 198.176 82.6425 198.16 82.902H189.503C189.568 84.2802 189.94 85.3178 190.587 86.0475C191.234 86.7771 192.043 87.1338 193.014 87.1338C193.742 87.1338 194.357 86.923 194.859 86.5177C195.36 86.1123 195.781 85.4638 196.072 84.5882ZM189.616 81.1671H196.089C196.008 80.1132 195.749 79.3349 195.344 78.7998C194.713 77.9891 193.904 77.5838 192.901 77.5838C191.995 77.5838 191.234 77.9081 190.62 78.5566C190.021 79.2052 189.681 80.0807 189.616 81.1671Z" stroke="black" stroke-width="0.216" stroke-miterlimit="22.9256"/>
<path d="M200.57 88.5929V76.1244H202.334V77.8755C202.69 77.2594 203.176 76.7729 203.79 76.4C204.389 76.0271 205.085 75.8487 205.861 75.8487C206.719 75.8487 207.431 76.0433 207.981 76.4162C208.531 76.8054 208.919 77.3404 209.146 78.0214C210.068 76.5622 211.266 75.8325 212.722 75.8325C213.871 75.8325 214.761 76.173 215.375 76.854C215.99 77.535 216.298 78.5889 216.298 80.0157V88.5767H214.34V80.7291C214.34 79.886 214.275 79.2699 214.146 78.897C214.016 78.524 213.79 78.2322 213.45 78.0052C213.11 77.7782 212.722 77.6647 212.269 77.6647C211.46 77.6647 210.78 77.9566 210.23 78.5403C209.68 79.124 209.421 80.0644 209.421 81.3453V88.5929H207.447V80.4859C207.447 79.5455 207.285 78.8483 206.962 78.3781C206.638 77.9079 206.12 77.6809 205.392 77.6809C204.842 77.6809 204.324 77.8431 203.855 78.1511C203.386 78.4592 203.046 78.9294 202.836 79.5293C202.625 80.1292 202.512 81.0048 202.512 82.1398V88.6092H200.57V88.5929Z" stroke="black" stroke-width="0.216" stroke-miterlimit="22.9256"/>
<path d="M219.227 73.806V71.3739H221.201V73.806H219.227ZM219.227 88.5932V76.1246H221.201V88.5932H219.227Z" stroke="black" stroke-width="0.216" stroke-miterlimit="22.9256"/>
<path d="M224.096 93.3926L223.886 91.4144C224.323 91.5442 224.695 91.609 225.019 91.609C225.456 91.609 225.811 91.5279 226.07 91.382C226.329 91.2361 226.54 91.0091 226.718 90.7172C226.847 90.5065 227.041 89.9876 227.316 89.1445C227.349 89.031 227.413 88.8526 227.494 88.6256L223.093 76.1246H225.213L227.624 83.3399C227.931 84.2641 228.222 85.2207 228.465 86.226C228.692 85.2531 228.967 84.3127 229.274 83.3885L231.75 76.1246H233.707L229.29 88.804C228.821 90.1822 228.449 91.1226 228.19 91.6414C227.834 92.3386 227.446 92.8413 226.993 93.1656C226.54 93.4898 226.006 93.652 225.375 93.652C224.986 93.652 224.566 93.5709 224.096 93.3926Z" stroke="black" stroke-width="0.216" stroke-miterlimit="22.9256"/>
<path d="M242.946 87.0527C242.218 87.7175 241.523 88.1877 240.843 88.4634C240.163 88.739 239.452 88.8687 238.675 88.8687C237.397 88.8687 236.426 88.5282 235.73 87.8634C235.05 87.1987 234.711 86.3393 234.711 85.3016C234.711 84.6855 234.84 84.1342 235.099 83.6316C235.358 83.129 235.698 82.7236 236.118 82.4155C236.539 82.1075 237.008 81.8805 237.542 81.7183C237.931 81.6048 238.513 81.5076 239.29 81.3941C240.875 81.1833 242.04 80.9401 242.801 80.6644C242.801 80.3726 242.817 80.1942 242.817 80.1132C242.817 79.2538 242.623 78.6377 242.267 78.2972C241.765 77.827 241.021 77.5838 240.034 77.5838C239.112 77.5838 238.432 77.7621 237.979 78.1026C237.542 78.4431 237.219 79.0755 237.008 79.951L235.083 79.6754C235.261 78.7998 235.552 78.0702 235.94 77.5351C236.345 77.0001 236.927 76.5785 237.672 76.2867C238.432 75.9948 239.306 75.8489 240.309 75.8489C241.296 75.8489 242.105 75.9786 242.72 76.2218C243.335 76.465 243.788 76.7893 244.079 77.1622C244.37 77.5351 244.581 78.0216 244.694 78.6053C244.759 78.962 244.791 79.6105 244.791 80.5509V83.3722C244.791 85.3341 244.84 86.5825 244.92 87.1014C245.001 87.6202 245.163 88.1229 245.422 88.5931H243.367C243.141 88.1553 243.011 87.6365 242.946 87.0527ZM242.785 82.3345C242.073 82.6425 241.005 82.9182 239.565 83.129C238.756 83.2587 238.189 83.3884 237.85 83.5505C237.51 83.7127 237.251 83.9397 237.073 84.2315C236.895 84.5396 236.798 84.8639 236.798 85.2368C236.798 85.8043 236.992 86.2745 237.397 86.6474C237.801 87.0203 238.367 87.2149 239.144 87.2149C239.905 87.2149 240.568 87.0365 241.167 86.6798C241.765 86.3231 242.186 85.8367 242.461 85.2206C242.671 84.7504 242.785 84.0369 242.785 83.1127V82.3345V82.3345Z" stroke="black" stroke-width="0.216" stroke-miterlimit="22.9256"/>
<path d="M247.04 84.8803L248.982 84.556C249.095 85.3991 249.387 86.0315 249.888 86.4855C250.39 86.9395 251.085 87.1503 251.975 87.1503C252.881 87.1503 253.545 86.9557 253.982 86.5503C254.419 86.1612 254.629 85.691 254.629 85.1559C254.629 84.6857 254.435 84.2966 254.046 84.021C253.771 83.8264 253.108 83.5994 252.04 83.3075C250.6 82.9184 249.597 82.5779 249.047 82.2861C248.497 81.9942 248.06 81.6051 247.785 81.1024C247.493 80.5998 247.348 80.0323 247.348 79.4324C247.348 78.8811 247.461 78.3623 247.704 77.8921C247.947 77.4219 248.27 77.0165 248.675 76.7084C248.982 76.4652 249.403 76.2544 249.921 76.0923C250.454 75.9302 251.021 75.8329 251.619 75.8329C252.526 75.8329 253.335 75.9788 254.014 76.2545C254.694 76.5301 255.211 76.9192 255.535 77.4056C255.859 77.8921 256.085 78.5244 256.215 79.3351L254.289 79.6108C254.208 78.9622 253.949 78.4758 253.529 78.1028C253.108 77.7461 252.526 77.5678 251.749 77.5678C250.843 77.5678 250.196 77.7299 249.807 78.0542C249.419 78.3785 249.225 78.7514 249.225 79.1892C249.225 79.4648 249.306 79.708 249.467 79.935C249.629 80.162 249.872 80.3566 250.228 80.5025C250.422 80.5836 251.005 80.7619 251.959 81.0376C253.351 81.4429 254.322 81.7672 254.872 82.0104C255.422 82.2698 255.859 82.6428 256.166 83.113C256.474 83.5994 256.635 84.1993 256.635 84.9289C256.635 85.6261 256.441 86.2909 256.069 86.9233C255.697 87.5556 255.131 88.0258 254.419 88.3663C253.707 88.7068 252.881 88.8852 251.975 88.8852C250.471 88.8852 249.322 88.5447 248.529 87.8799C247.752 87.1989 247.251 86.1936 247.04 84.8803Z" stroke="black" stroke-width="0.216" stroke-miterlimit="22.9256"/>
<path d="M259.693 88.5932V76.1246H261.667V88.5932H259.693Z" stroke="black" stroke-width="0.216" stroke-miterlimit="22.9256"/>
</svg>
