<svg width="566" height="632" viewBox="0 0 566 632" fill="none" xmlns="http://www.w3.org/2000/svg">
<path d="M461.696 630.859C618.73 626.733 663.329 543.956 666 503.083V0C603.431 4.5839 397.765 7.5308 373.5 96C343.169 206.587 160.677 177.053 63.9615 237.79C-32.7538 298.526 -21.8805 409.113 110.888 453.806C243.657 498.499 202.5 637.668 461.696 630.859Z" fill="url(#paint0_linear)"/>
<path d="M226.314 211.135L222.449 212.314L219.855 206.339L213.989 207.37L211.312 203.216L209.197 204.562L212.778 210.12L218.336 209.144L221.035 215.36L226.849 213.583L226.314 211.135Z" fill="white"/>
<path d="M474.125 426.031L470.26 427.21L467.666 421.235L461.803 422.266L459.126 418.112L457.008 419.458L460.59 425.016L466.147 424.04L468.846 430.256L474.66 428.48L474.125 426.031Z" fill="white"/>
<path d="M275.997 169.136C265.461 170.86 262.329 184.617 271.09 190.77C272.664 191.875 273.753 193.537 274.216 195.396L275.813 201.796C276.251 203.559 277.979 204.692 279.782 204.395L283.774 203.743C285.577 203.447 286.848 201.826 286.696 200.014C286.142 193.408 285.459 191.012 287.617 188.064C293.93 179.446 286.536 167.411 275.997 169.136Z" fill="white"/>
<path d="M274.169 195.24C274.183 195.292 274.203 195.344 274.216 195.399L275.813 201.799C276.251 203.562 277.979 204.694 279.782 204.398L283.774 203.746C285.577 203.449 286.848 201.829 286.696 200.016C286.451 197.077 286.178 194.974 286.142 193.282L274.169 195.24Z" fill="#BEBBEE"/>
<path d="M268.185 164.359L265.034 158.639C264.728 158.085 264.931 157.391 265.488 157.087C266.045 156.782 266.743 156.985 267.049 157.539L270.2 163.259C270.506 163.813 270.302 164.507 269.745 164.811C269.185 165.116 268.488 164.91 268.185 164.359Z" fill="white"/>
<path d="M261.298 178.198L254.428 177.6C253.797 177.545 253.328 176.991 253.383 176.361C253.438 175.733 253.995 175.267 254.629 175.322L261.496 175.919C262.128 175.974 262.596 176.528 262.541 177.159C262.486 177.787 261.932 178.253 261.298 178.198Z" fill="white"/>
<path d="M254.486 199.142C254.039 198.692 254.045 197.968 254.497 197.524C256.187 195.865 258.042 194.357 260.016 193.046C260.543 192.695 261.257 192.838 261.609 193.361C261.962 193.885 261.819 194.595 261.292 194.946C259.44 196.177 257.698 197.592 256.112 199.15C255.663 199.594 254.935 199.594 254.486 199.142Z" fill="white"/>
<path d="M285.155 164.049C284.54 163.887 284.176 163.259 284.342 162.651C285.119 159.755 285.596 156.769 285.759 153.775C285.795 153.144 286.335 152.659 286.969 152.694C287.603 152.727 288.088 153.267 288.055 153.898C287.884 157.049 287.383 160.194 286.564 163.243C286.399 163.854 285.764 164.211 285.155 164.049Z" fill="white"/>
<path d="M292.229 172.832C292.047 172.226 292.389 171.589 292.999 171.406L300.139 169.264C300.748 169.083 301.388 169.423 301.572 170.029C301.754 170.632 301.412 171.271 300.803 171.452L293.663 173.594C293.054 173.778 292.414 173.438 292.229 172.832Z" fill="white"/>
<path d="M303.96 191.73C303.858 191.73 303.753 191.716 303.648 191.686C301.175 190.995 298.768 190.035 296.497 188.834C295.937 188.538 295.725 187.847 296.023 187.288C296.32 186.731 297.018 186.517 297.578 186.814C299.703 187.938 301.955 188.834 304.271 189.482C304.883 189.652 305.239 190.282 305.065 190.891C304.922 191.401 304.461 191.73 303.96 191.73Z" fill="white"/>
<path d="M408.549 242.263L404.946 233.79L395.885 231.939C394.854 231.728 394.512 230.431 395.309 229.745L402.297 223.718L401.269 214.576C401.15 213.534 402.286 212.813 403.187 213.353L411.108 218.102L419.532 214.305C420.492 213.871 421.534 214.722 421.297 215.742L419.204 224.703L425.44 231.497C426.151 232.271 425.661 233.518 424.61 233.609L415.395 234.398L410.824 242.397C410.305 243.307 408.96 243.228 408.549 242.263Z" fill="white"/>
<path d="M465.9 213.189L464.417 219.123L454.558 217.806L451.319 226.213L443.779 226.43L443.887 230.225L453.971 229.937L457.042 221.969L467.3 223.34L469.528 214.412L465.9 213.189Z" fill="white"/>
<path d="M378.06 497.546H204.753C198.134 497.546 192.767 492.01 192.767 485.183V477.831C192.767 471.001 198.134 465.467 204.753 465.467H378.06C370.131 474.406 369.996 488.07 377.74 497.176L378.06 497.546Z" fill="#B75742"/>
<path d="M375.383 469.138H279.259C272.639 469.138 267.272 474.674 267.272 481.505C267.272 488.332 272.637 493.869 279.259 493.869H375.391C370.9 486.284 370.908 476.706 375.383 469.138Z" fill="#FAE0B2"/>
<path d="M317.176 443.183C317.427 442.714 317.043 442.168 316.462 442.168H224.757C217.57 442.168 211.742 447.383 211.742 453.819C211.742 460.252 217.57 465.47 224.757 465.47H316.484C317.068 465.47 317.454 464.921 317.198 464.45C313.57 457.715 313.578 449.887 317.176 443.183Z" fill="#86B1F2"/>
<path d="M316.597 444.337H271.148C262.712 444.337 255.873 448.708 255.873 454.099C255.873 459.489 262.712 463.86 271.148 463.86H316.895C313.768 457.65 313.683 450.575 316.597 444.337Z" fill="#F7CC7F"/>
<path d="M304.858 448.966H298.939C297.665 448.966 296.634 449.391 296.634 449.914V449.999H304.858V448.966Z" fill="#B75742"/>
<path d="M309.908 451.346C309.908 450.03 308.362 448.966 306.457 448.966H298.862C300.309 448.966 301.481 449.775 301.481 450.773L301.445 476.298L305.641 473.016L309.919 476.298L309.908 451.346Z" fill="#F47458"/>
<path d="M300.315 441.329H246.957C242.226 441.329 238.389 436.802 238.389 431.216C238.389 425.631 242.224 421.104 246.957 421.104H300.315C296.238 426.711 296.078 434.934 299.935 440.756L300.315 441.329Z" fill="#FAE0B2"/>
<path d="M238.394 431.214C238.394 425.628 242.32 421.101 247.164 421.101H301.329C301.583 421.101 301.787 420.863 301.784 420.572C301.781 420.284 301.58 420.054 301.329 420.054H215.4C210.054 420.054 205.721 425.05 205.721 431.217C205.721 437.381 210.054 442.379 215.4 442.379H301.327C301.575 442.379 301.779 442.146 301.781 441.861C301.784 441.57 301.58 441.332 301.327 441.332H247.164C242.323 441.329 238.394 436.799 238.394 431.214Z" fill="#466EB6"/>
<path d="M290.997 426.07H285.078C283.804 426.07 282.773 426.486 282.773 427.002V427.084H290.997V426.07Z" fill="#184655"/>
<path d="M296.047 428.406C296.047 427.117 294.501 426.07 292.596 426.07H285.001C286.448 426.07 287.62 426.862 287.62 427.841L287.584 452.873L291.78 449.654L296.059 452.873L296.047 428.406Z" fill="#3C8F7C"/>
<path d="M385.329 271.454L393.206 269.392L387.866 340.219L378.415 340.531L383.182 274.026C383.273 272.8 384.133 271.766 385.329 271.454Z" fill="#184655"/>
<path d="M388.574 342.237C388.398 342.253 388.218 342.251 388.034 342.229C386.471 342.045 385.31 340.498 385.448 338.771L390.691 272.172C390.826 270.448 392.205 269.197 393.77 269.381C395.336 269.565 396.494 271.111 396.356 272.839L391.113 339.437C390.992 340.962 389.903 342.116 388.574 342.237Z" fill="#F7CC7F"/>
<path d="M316.078 345.785C316.081 345.835 316.084 345.884 316.09 345.933C316.338 348.643 318.447 350.669 320.804 350.461L387.325 344.538C389.682 344.329 391.391 341.96 391.146 339.251C391.135 339.136 391.121 339.024 391.105 338.911L316.078 345.785Z" fill="#F7CC7F"/>
<path d="M362.401 417.319C358.045 419.721 344.73 415.51 344.73 415.128C344.539 418.748 329.821 454.175 329.821 454.175L329.832 465.075C329.832 465.075 360.16 466.511 359.724 463.846C359.288 461.181 357.656 462.914 351.608 457.88C351.07 457.433 342.577 455.472 344.876 450.471C349.502 440.399 359.335 423.607 362.401 417.319Z" fill="#F7A491"/>
<path d="M328.834 465.464L362.032 465.472C363.231 465.351 363.509 464.381 363.088 463.791C362.216 462.576 355.854 459.716 351.578 457.816C344.129 458.683 331.034 455.834 329.835 454.142C326.681 458.345 328.167 465.327 328.834 465.464Z" fill="#3C8F7C"/>
<path d="M321.554 391.884C321.104 390.544 350.136 378.289 351.435 379.691C353.734 382.167 335.726 428.655 335.726 428.655L356.413 434.943C356.413 434.943 377.919 381.234 377.023 371.41C376.124 361.585 365.351 350.422 342.006 357.568C318.664 364.714 321.554 391.884 321.554 391.884Z" fill="#355389"/>
<path d="M381.663 423.429C376.761 422.54 370.409 422.288 365.326 422.2C365.924 426.703 368.835 449.796 368.303 451.214C366.147 456.961 361.367 459.651 361.367 459.651C361.367 459.651 383.909 479.882 385.271 477.545C386.633 475.209 384.265 475.522 382.793 467.814C382.663 467.128 379.402 456.371 379.201 450.567C378.815 439.5 381.495 429.576 381.663 423.429Z" fill="#F7A491"/>
<path d="M374.429 347.885C371.283 346.215 363.12 346.158 354.142 346.736C336.639 347.863 319.364 351.291 302.713 356.775L291.573 360.446L291.609 349.086C291.609 349.086 256.167 343.188 254.935 351.924C253.077 365.08 255.382 391.793 267.192 397.755C303.871 416.274 355.272 368.253 355.457 374.535C355.707 382.972 362.859 414.371 364.686 428.117C369.773 428.205 378.509 428.202 382.297 427.336C383.036 400.406 383.38 352.637 374.429 347.885Z" fill="#BEBBEE"/>
<path d="M360.678 460.128L386.019 480.263C387.022 480.924 387.857 480.351 387.904 479.629C388.003 478.141 384.905 471.916 382.807 467.754C376.494 463.728 368.165 453.226 368.314 451.164C365.646 453.405 360.248 459.599 360.678 460.128Z" fill="#3C8F7C"/>
<path d="M303.32 238.07C302.468 230.329 301.572 222.561 295.121 216.888C289.9 212.297 283.264 211.519 276.7 213.976C258.106 220.935 267.685 237.36 243.977 253.922C236.608 259.068 228.489 262.589 222.943 269.518C215.179 279.217 218.11 290.884 225.187 298.674C259.043 335.944 296.844 285.611 299.557 273.527C301.578 264.539 303.868 243.052 303.32 238.07Z" fill="#0B0754"/>
<path d="M296.445 281.591C293.68 276.521 290.829 272.496 290.829 272.496C287.959 267.423 280.549 264.859 280.549 264.859C280.549 264.859 278.07 264.909 275.223 265.049C275.046 265.517 274.867 265.855 274.685 265.989C273.615 266.787 267.484 265.756 263.526 268.432C250.252 279.749 253.924 334.603 254.969 351.927L295.391 352.308C295.391 352.308 290.294 315.03 298.509 305.452C304.23 298.778 300.549 289.113 296.445 281.591Z" fill="#DDE8FE"/>
<path d="M278.225 246.301C278.225 246.301 276.003 262.085 274.451 265.921C272.899 269.757 282.983 277.958 291.375 280.448C299.766 282.938 288.811 271.975 289.158 267.876C289.506 263.776 291.03 244.363 291.03 244.363L278.225 246.301Z" fill="#F7A491"/>
<path d="M290.608 249.929C290.854 246.718 291.033 244.363 291.033 244.363L278.225 246.301C278.225 246.301 277.902 248.155 277.544 250.779C282.735 253.773 287.405 252.827 290.608 249.929Z" fill="#F47458"/>
<path d="M282.241 217.472C282.241 217.472 277.194 218.604 274.076 223.334C270.958 228.064 268.821 241.994 279.085 248.495C289.351 254.996 297.335 245.8 297.467 236.83C297.599 227.858 295.667 215.889 282.241 217.472Z" fill="#F7A491"/>
<path d="M299.816 234.023C298.939 236.186 297.203 237.53 295.934 237.022C294.666 236.515 294.349 234.349 295.226 232.185C296.103 230.022 297.839 228.678 299.107 229.186C300.376 229.693 300.693 231.856 299.816 234.023Z" fill="#F7A491"/>
<path d="M283.755 217.175C283.755 217.175 277.321 231.533 271.666 232.816C266.012 234.099 266.095 241.322 266.095 241.322C266.095 241.322 266.222 224.639 271.52 220.811C276.816 216.986 283.755 217.175 283.755 217.175Z" fill="#0B0754"/>
<path d="M273.913 235.802C274.657 238.133 273.976 240.43 272.391 240.929C270.806 241.429 268.917 239.945 268.173 237.614C267.429 235.284 268.11 232.986 269.695 232.487C271.28 231.985 273.169 233.468 273.913 235.802Z" fill="#F7A491"/>
<path d="M346.216 339.457C343.79 338.585 340.181 338.475 340.242 338.157C340.484 336.868 351.2 341.003 349.753 339.122C348.948 338.075 340.928 334.365 338.979 334.979C337.088 335.574 324.668 339.04 324.668 339.04L290.73 331.129C290.73 331.129 282.164 311.767 281.326 295.132C274.244 296.083 269.425 297.824 263.269 301.222C266.238 317.131 273.45 342.917 281.425 347.754C284.78 349.789 324.834 345.319 324.834 345.319C324.834 345.319 333.661 344.699 335.103 344.148C336.197 343.729 339.012 342.152 340.545 341.721C344.027 340.74 350.232 343.202 350.252 342.525C350.268 342.026 348.694 340.348 346.216 339.457Z" fill="#F7A491"/>
<path d="M281.536 277.355C281.21 272.235 279.261 267.294 273.783 265.701C270.39 264.714 266.583 265.657 263.87 267.862C260.645 270.483 259.743 274.687 259.757 278.665C259.79 287.7 260.41 297.07 262.07 305.965C268.223 302.568 275.407 300.525 282.489 299.574C282.487 299.524 281.966 284.119 281.536 277.355Z" fill="#92B5F9"/>
<path d="M176.383 287.015L123.767 277.27C122.711 277.076 122.013 276.064 122.209 275.014L128.801 239.809C128.996 238.758 130.014 238.065 131.07 238.259L183.686 248.004C184.742 248.199 185.439 249.211 185.243 250.261L178.652 285.469C178.456 286.516 177.439 287.21 176.383 287.015Z" fill="#BEBBEE"/>
<path d="M151.337 246.765L135.32 243.798C134.264 243.603 133.567 242.592 133.763 241.541L134.766 236.184C134.962 235.133 135.979 234.44 137.035 234.634L153.052 237.601C154.108 237.796 154.805 238.808 154.609 239.858L153.606 245.216C153.41 246.269 152.393 246.962 151.337 246.765Z" fill="#BEBBEE"/>
<path d="M178.778 285.669C178.506 286.632 177.538 287.229 176.548 287.046L123.59 277.237C122.606 277.054 121.919 276.16 122.008 275.164L124.778 243.606C124.825 243.063 125.104 242.564 125.539 242.233C125.977 241.904 126.534 241.772 127.072 241.871L185.905 252.768C186.442 252.866 186.914 253.187 187.203 253.65C187.493 254.114 187.573 254.673 187.424 255.197L178.778 285.669Z" fill="white"/>
<path d="M420.109 170.355L411.097 172.801L409.159 161.943L412.106 161.422L413.473 169.069L419.32 167.482L420.109 170.355Z" fill="white"/>
<path d="M133.062 319.5C135.318 319.317 138.783 320.307 140.335 321.354C140.569 321.571 142.356 322.278 144.211 325.338L143.792 325.626C141.832 323.586 140.514 323.128 138.946 322.662C136.36 322.001 133.752 322.495 133.537 322.61L133.062 319.5Z" fill="#BEBBEE"/>
<path d="M144.004 325.483C144.004 325.483 130.256 327.765 131.538 338.448C132.82 349.131 147.324 357.439 160.267 350.833C177.679 341.947 170.803 319.349 158.409 317.603C146.017 315.856 144.004 325.483 144.004 325.483Z" fill="white"/>
<path d="M149.835 320.778C149.835 320.778 153.421 317.115 161.281 320.447C169.141 323.778 169.708 339.317 162.701 338.415C155.69 337.513 144.233 323.021 149.835 320.778Z" fill="white"/>
<path d="M244.41 178.867L187.868 198.927C186.045 199.574 184.041 198.628 183.391 196.816L172.953 167.718C172.303 165.905 173.254 163.912 175.076 163.264L231.618 143.204C233.44 142.557 235.445 143.503 236.095 145.315L246.532 174.414C247.183 176.226 246.232 178.22 244.41 178.867Z" fill="#BEBBEE"/>
<path d="M206.934 171.386C209.012 177.183 205.974 183.561 200.144 185.628C194.316 187.696 187.904 184.674 185.825 178.875C183.746 173.078 186.784 166.7 192.615 164.633C198.443 162.565 204.855 165.59 206.934 171.386Z" fill="white"/>
<path d="M197.985 169.826C198.597 171.534 197.701 173.415 195.984 174.027C194.266 174.635 192.375 173.744 191.761 172.036C191.149 170.328 192.045 168.447 193.762 167.835C195.482 167.224 197.373 168.118 197.985 169.826Z" fill="#BEBBEE"/>
<path d="M203.369 178.99L193.423 182.519L193.026 181.409C192.301 179.382 193.362 177.156 195.396 176.432L197.969 175.519C200.006 174.795 202.244 175.853 202.972 177.877L203.369 178.99Z" fill="#BEBBEE"/>
<path d="M208.326 165.302C207.722 165.302 207.182 164.923 206.98 164.358C206.716 163.621 207.104 162.806 207.846 162.543L232.564 153.774C232.718 153.719 232.881 153.692 233.043 153.692C233.647 153.692 234.187 154.07 234.389 154.635C234.653 155.373 234.265 156.187 233.523 156.45L208.805 165.219C208.651 165.274 208.491 165.302 208.326 165.302Z" fill="white"/>
<path d="M215 171.43C214.396 171.43 213.856 171.052 213.655 170.487C213.39 169.749 213.779 168.935 214.52 168.672L233.826 161.822C233.981 161.767 234.143 161.74 234.306 161.74C234.91 161.74 235.45 162.118 235.651 162.683C235.778 163.04 235.759 163.426 235.596 163.769C235.433 164.112 235.144 164.372 234.786 164.498L215.48 171.348C215.323 171.403 215.163 171.43 215 171.43Z" fill="white"/>
<path d="M332.263 398.361H195.735C191.495 398.361 188.058 401.78 188.058 405.998V412.42C188.058 416.637 191.495 420.056 195.735 420.056H332.263L332.192 419.982C326.35 413.933 326.383 404.369 332.263 398.361Z" fill="#F47458"/>
<path d="M329.846 401.572H256.862C252.622 401.572 249.185 404.992 249.185 409.209C249.185 413.426 252.622 416.845 256.862 416.845H329.846C327.164 412.115 327.166 406.297 329.846 401.572Z" fill="#FAE0B2"/>
<path d="M444.005 398.987L433.656 373.162C433.135 371.862 433.772 370.39 435.079 369.872L472.318 355.109C473.624 354.59 475.105 355.224 475.626 356.523L485.975 382.348C486.496 383.648 485.859 385.12 484.552 385.638L447.313 400.401C446.007 400.92 444.523 400.286 444.005 398.987Z" fill="white"/>
<path d="M479.135 384.054L469.836 360.848C469.687 360.475 469.869 360.053 470.244 359.904C470.619 359.756 471.044 359.937 471.193 360.31L480.491 383.516C480.64 383.889 480.458 384.311 480.083 384.459C479.708 384.607 479.284 384.426 479.135 384.054Z" fill="#BEBBEE"/>
<path d="M474.702 380.996L467.066 361.942C466.917 361.569 467.099 361.147 467.474 360.998C467.849 360.85 468.274 361.031 468.422 361.404L476.059 380.459C476.208 380.832 476.026 381.254 475.651 381.402C475.279 381.553 474.854 381.369 474.702 380.996Z" fill="#BEBBEE"/>
<path d="M473.603 386.247L464.304 363.041C464.155 362.668 464.337 362.246 464.712 362.098C465.087 361.95 465.512 362.131 465.661 362.504L474.959 385.71C475.108 386.083 474.926 386.505 474.551 386.653C474.176 386.801 473.752 386.62 473.603 386.247Z" fill="#BEBBEE"/>
<path d="M468.712 382.049L461.533 364.138C461.384 363.765 461.566 363.343 461.941 363.195C462.316 363.047 462.74 363.228 462.889 363.601L470.068 381.512C470.217 381.884 470.035 382.307 469.66 382.455C469.288 382.603 468.863 382.422 468.712 382.049Z" fill="#BEBBEE"/>
<path d="M478.884 358.372L478.697 357.906C478.628 357.733 478.44 357.645 478.278 357.711L474.743 359.112C474.581 359.175 474.504 359.367 474.572 359.54L474.76 360.006C474.829 360.179 475.016 360.266 475.179 360.201L478.713 358.799C478.876 358.736 478.953 358.544 478.884 358.372Z" fill="#394B92"/>
<path d="M479.683 360.37L479.496 359.904C479.427 359.731 479.24 359.644 479.077 359.709L475.543 361.111C475.38 361.174 475.303 361.366 475.372 361.538L475.559 362.005C475.628 362.177 475.816 362.265 475.978 362.199L479.513 360.798C479.678 360.735 479.752 360.543 479.683 360.37Z" fill="#394B92"/>
<path d="M480.486 362.369L480.298 361.903C480.229 361.73 480.042 361.643 479.879 361.708L476.345 363.11C476.182 363.173 476.105 363.365 476.174 363.537L476.361 364.003C476.43 364.176 476.618 364.264 476.78 364.198L480.315 362.797C480.477 362.734 480.555 362.542 480.486 362.369Z" fill="#394B92"/>
<path d="M481.285 364.368L481.098 363.902C481.029 363.73 480.841 363.642 480.679 363.708L477.145 365.109C476.982 365.175 476.905 365.364 476.974 365.537L477.161 366.003C477.23 366.175 477.417 366.263 477.58 366.197L481.114 364.796C481.28 364.733 481.354 364.541 481.285 364.368Z" fill="#394B92"/>
<path d="M482.087 366.367L481.9 365.901C481.831 365.728 481.644 365.641 481.481 365.706L477.947 367.108C477.784 367.173 477.707 367.365 477.776 367.535L477.963 368.001C478.032 368.174 478.22 368.262 478.382 368.196L481.916 366.795C482.079 366.732 482.156 366.54 482.087 366.367Z" fill="#394B92"/>
<path d="M482.89 368.366L482.703 367.9C482.634 367.727 482.446 367.64 482.284 367.705L478.749 369.107C478.587 369.172 478.509 369.362 478.578 369.534L478.766 370.001C478.835 370.173 479.022 370.261 479.185 370.195L482.719 368.794C482.882 368.731 482.959 368.539 482.89 368.366Z" fill="#394B92"/>
<path d="M483.689 370.365L483.501 369.899C483.432 369.726 483.245 369.639 483.082 369.704L479.548 371.106C479.385 371.171 479.308 371.361 479.377 371.533L479.565 372C479.634 372.172 479.821 372.26 479.984 372.194L483.518 370.793C483.683 370.73 483.758 370.538 483.689 370.365Z" fill="#394B92"/>
<path d="M484.492 372.364L484.304 371.898C484.235 371.725 484.048 371.638 483.885 371.704L480.351 373.105C480.188 373.17 480.111 373.36 480.18 373.532L480.368 373.999C480.437 374.171 480.624 374.259 480.787 374.193L484.321 372.792C484.483 372.729 484.561 372.537 484.492 372.364Z" fill="#394B92"/>
<path d="M485.291 374.363L485.104 373.897C485.035 373.724 484.848 373.636 484.685 373.702L481.151 375.103C480.988 375.169 480.911 375.358 480.98 375.531L481.167 375.997C481.236 376.17 481.423 376.258 481.586 376.192L485.121 374.791C485.286 374.728 485.36 374.536 485.291 374.363Z" fill="#394B92"/>
<path d="M486.093 376.362L485.906 375.896C485.837 375.723 485.649 375.635 485.487 375.701L481.952 377.102C481.79 377.168 481.713 377.357 481.782 377.53L481.969 377.996C482.038 378.169 482.225 378.257 482.388 378.191L485.922 376.79C486.085 376.727 486.162 376.532 486.093 376.362Z" fill="#394B92"/>
<path d="M486.893 378.361L486.705 377.892C486.636 377.72 486.449 377.632 486.286 377.698L482.752 379.099C482.59 379.165 482.512 379.354 482.581 379.527L482.769 379.993C482.838 380.165 483.025 380.253 483.188 380.187L486.722 378.786C486.887 378.723 486.962 378.534 486.893 378.361Z" fill="#394B92"/>
<path d="M487.695 380.36L487.507 379.894C487.438 379.721 487.251 379.633 487.088 379.699L483.554 381.1C483.391 381.164 483.314 381.355 483.383 381.528L483.571 381.994C483.64 382.167 483.827 382.255 483.99 382.189L487.524 380.788C487.687 380.722 487.764 380.53 487.695 380.36Z" fill="#394B92"/>
<path d="M497.46 378.301L482.681 399.233C482.648 399.28 482.623 399.332 482.604 399.387L481.098 403.985C480.922 404.52 481.545 404.962 481.997 404.624L485.953 401.657C486.003 401.622 486.044 401.578 486.08 401.529L500.898 380.541C501.088 380.272 501.014 379.902 500.735 379.724L498.249 378.144C497.984 377.983 497.639 378.048 497.46 378.301Z" fill="white"/>
<path d="M486.061 401.553L486.025 401.605L482.207 404.468L481.165 403.774L482.593 399.415C483.712 400.023 485.052 400.648 486.061 401.553Z" fill="#BEBBEE"/>
<path d="M347.724 151.682C349.852 153.371 353.552 158.806 358.274 162.62C361.037 164.852 363.165 164.285 366.691 164.707C383.419 166.717 378.887 170.12 380.894 170.454C380.323 171.76 375.113 182.777 374.14 185.006C373.241 187.06 371.689 187.981 369.439 187.672C365.98 187.197 362.489 186.841 359.082 186.109C350.351 184.225 345.494 179.881 339.236 174.606C337.576 173.207 337.168 171.461 338.028 169.484C342.031 160.276 347.288 152.53 347.724 151.682Z" fill="#BEBBEE"/>
<path d="M382.705 183.712C382.63 187.337 382.909 188.066 381.343 187.515C380.4 187.183 379.488 186.753 378.597 186.295C377.969 185.971 377.944 185.546 378.454 185.036C379.196 184.293 379.959 183.572 380.703 182.851C380.16 181.428 380.783 179.774 382.12 178.996C382.393 178.837 382.195 179.174 384.524 173.841C376.819 172.895 371.386 172.261 361.985 171.112C359.471 170.805 357.238 169.835 355.294 168.217C348.581 162.629 341.868 157.043 335.158 151.449C334.249 150.69 334.133 149.579 334.855 148.724C335.406 148.068 336.14 148.038 336.928 148.137C339.073 148.406 360.105 151.002 362.241 151.252C365.048 151.578 367.518 152.628 369.687 154.435C376.282 159.928 382.895 165.403 389.498 170.885C390.405 171.636 390.65 172.327 390.33 173.163C389.98 174.082 389.216 174.521 388.061 174.274C387.229 174.096 386.859 174.345 386.573 175.113C385.277 178.582 384.373 179.349 384.687 180.616C384.93 181.595 383.761 183.287 382.705 183.712Z" fill="white"/>
<path d="M417.598 430.037L421.429 433.673C430.497 442.275 437.89 452.464 443.239 463.731L443.826 464.968C443.826 464.968 453.863 465.851 455.264 456.824C446.458 446.934 439.208 436.377 433.226 424.633L431.412 420.413L417.598 430.037Z" fill="white"/>
<path d="M431.404 420.399C431.897 421.101 429.204 423.815 425.391 426.461C421.579 429.108 418.069 430.714 417.576 430.012C417.082 429.31 419.792 426.563 423.608 423.917C427.42 421.274 430.913 419.697 431.404 420.399Z" fill="#86B1F2"/>
<path d="M431.421 420.427L431.41 420.413C431.41 420.413 423.77 426.846 420.619 427.501L421.592 428.817C422.742 428.197 424.049 427.394 425.394 426.462C429.16 423.849 431.834 421.167 431.421 420.427Z" fill="#355389"/>
<path d="M441.629 439.102C441.643 440.21 441.216 444.997 433.21 446.993C433.736 447.706 434.255 448.428 434.762 449.154C439.829 447.665 442.109 445.077 443.132 443.105C443.294 442.793 443.49 442.376 443.62 442.052C442.944 441.076 442.28 440.092 441.629 439.102Z" fill="#BEBBEE"/>
<path d="M433.926 445.579L422.146 445.159L424.936 447.517L423.268 450.528L434.42 447.701L433.926 445.579Z" fill="#BEBBEE"/>
<path d="M435.001 448.304L430.814 455.557L433.758 454.441L434.894 456.744L436.86 449.116L435.001 448.304Z" fill="#BEBBEE"/>
<path d="M436.601 450.27C434.533 450.415 432.733 448.814 432.581 446.695C432.429 444.575 433.984 442.738 436.055 442.592C438.122 442.447 439.922 444.048 440.074 446.168C440.223 448.288 438.668 450.125 436.601 450.27Z" fill="#BEBBEE"/>
<path d="M461.607 285.702L436.796 263.681C435.183 262.249 435.856 259.304 438.08 258.051L457.882 246.899C459.151 246.186 460.579 246.252 461.497 247.067L486.308 269.088C487.921 270.519 487.248 273.464 485.023 274.717L465.221 285.869C463.956 286.585 462.528 286.519 461.607 285.702Z" fill="white"/>
<path d="M460.433 268.183L458.365 251.265C458.285 250.618 458.76 249.924 459.424 249.718C460.088 249.513 460.692 249.872 460.769 250.519L462.674 266.088L481.489 270.613C482.101 270.761 482.385 271.419 482.121 272.082C481.856 272.746 481.142 273.166 480.527 273.017L460.433 268.183Z" fill="#BEBBEE"/>
<path d="M136.437 190.685L139 195.73L144.795 195.547L147.265 201.404L153.377 199.312L156.465 205.816L162.331 204.579L166.331 210.354L164.134 211.859L161.143 207.543L154.954 208.846L151.985 202.596L145.771 204.722L143.045 198.256L137.385 198.44L135.009 193.762L131.317 194.656L130.689 192.075L136.437 190.685Z" fill="white"/>
<path d="M446.729 319.775L451.994 321.902L456.24 317.976L461.974 320.778L465.199 315.209L471.824 318.094L475.43 313.331L482.258 315.069L481.597 317.639L476.491 316.339L472.687 321.368L466.318 318.596L463.038 324.258L456.711 321.165L452.565 324.998L447.685 323.027L445.491 326.111L443.313 324.579L446.729 319.775Z" fill="white"/>
<defs>
<linearGradient id="paint0_linear" x1="683.879" y1="631.1" x2="86.9696" y2="343.235" gradientUnits="userSpaceOnUse">
<stop stop-color="#273980"/>
<stop offset="1" stop-color="#5C6EB7"/>
</linearGradient>
</defs>
</svg>
