<svg width="1280" height="694" viewBox="0 0 1280 694" fill="none" xmlns="http://www.w3.org/2000/svg">
<path d="M0 385.579V-2H1284V642.606C1247.33 658.018 1125.5 740.52 912.5 657.565C662.252 560.103 710.5 566.45 380 606.341C126.868 636.894 20.3333 462.642 0 385.579Z" fill="#B0D9F0"/>
<path d="M234 -3.9707C234.935 -4.01002 235.835 -4.00952 236.704 -3.9707H1284V453.793C1244.4 472.503 1151.82 498.696 1098.26 453.793C1031.32 397.665 967.62 424.329 815.376 476.797C691.047 519.644 480.644 497.429 513.362 341.998C552.824 154.532 497.372 114.19 385.007 92.1828C254.235 66.5703 273.114 -2.3441 236.704 -3.9707H234Z" fill="url(#paint0_linear)"/>
<defs>
<linearGradient id="paint0_linear" x1="1312.19" y1="496" x2="708.357" y2="-83.4805" gradientUnits="userSpaceOnUse">
<stop stop-color="#273980"/>
<stop offset="1" stop-color="#5C6EB7"/>
</linearGradient>
</defs>
</svg>
