<svg width="1280" height="689" viewBox="0 0 1280 689" fill="none" xmlns="http://www.w3.org/2000/svg">
<path d="M0 380.579V-7H1284V637.606C1247.33 653.018 1125.5 735.52 912.5 652.565C662.252 555.103 710.5 561.45 380 601.341C126.868 631.894 20.3333 457.642 0 380.579Z" fill="#B0D9F0"/>
<path d="M234 -8.9707C234.935 -9.01002 235.835 -9.00952 236.704 -8.9707H1284V448.793C1244.4 467.503 1151.82 493.696 1098.26 448.793C1031.32 392.665 967.62 419.329 815.376 471.797C691.047 514.644 480.644 492.429 513.362 336.998C552.824 149.532 497.372 109.19 385.007 87.1828C254.235 61.5703 273.114 -7.3441 236.704 -8.9707H234Z" fill="url(#paint0_linear)"/>
<defs>
<linearGradient id="paint0_linear" x1="1312.19" y1="491" x2="708.357" y2="-88.4805" gradientUnits="userSpaceOnUse">
<stop stop-color="#273980"/>
<stop offset="1" stop-color="#5C6EB7"/>
</linearGradient>
</defs>
</svg>
